<svg width="16" height="13" viewBox="0 0 16 13" fill="none" xmlns="http://www.w3.org/2000/svg">
<path fill-rule="evenodd" clip-rule="evenodd" d="M0.571429 0.785767C0.419881 0.785782 0.274545 0.845991 0.167385 0.953151C0.0602242 1.06031 1.51525e-05 1.20565 0 1.3572V3.07148C0 3.22303 0.0602035 3.36838 0.167367 3.47554C0.274531 3.58271 0.419876 3.64291 0.571429 3.64291C0.722981 3.64291 0.868326 3.58271 0.97549 3.47554C1.08265 3.36838 1.14286 3.22303 1.14286 3.07148V1.92862H2.28571C2.43727 1.92862 2.58261 1.86842 2.68978 1.76126C2.79694 1.65409 2.85714 1.50875 2.85714 1.3572C2.85714 1.20564 2.79694 1.0603 2.68978 0.953134C2.58261 0.84597 2.43727 0.785767 2.28571 0.785767H0.571429Z" fill="#555555"/>
<path fill-rule="evenodd" clip-rule="evenodd" d="M13.7143 0.785767C13.5627 0.785767 13.4174 0.84597 13.3102 0.953134C13.2031 1.0603 13.1429 1.20564 13.1429 1.3572C13.1429 1.50875 13.2031 1.65409 13.3102 1.76126C13.4174 1.86842 13.5627 1.92862 13.7143 1.92862H14.8571V3.07148C14.8571 3.22303 14.9173 3.36838 15.0245 3.47554C15.1317 3.58271 15.277 3.64291 15.4286 3.64291C15.5801 3.64291 15.7255 3.58271 15.8326 3.47554C15.9398 3.36838 16 3.22303 16 3.07148V1.3572C16 1.20565 15.9398 1.06031 15.8326 0.953151C15.7255 0.845991 15.5801 0.785782 15.4286 0.785767H13.7143Z" fill="#555555"/>
<path fill-rule="evenodd" clip-rule="evenodd" d="M15.4286 9.3572C15.277 9.3572 15.1317 9.4174 15.0245 9.52456C14.9173 9.63173 14.8571 9.77707 14.8571 9.92862V11.0715H13.7143C13.5627 11.0715 13.4174 11.1317 13.3102 11.2388C13.2031 11.346 13.1429 11.4914 13.1429 11.6429C13.1429 11.7945 13.2031 11.9398 13.3102 12.047C13.4174 12.1541 13.5627 12.2143 13.7143 12.2143H15.4286C15.5801 12.2143 15.7255 12.1541 15.8326 12.047C15.9398 11.9398 16 11.7945 16 11.6429V9.92862C16 9.77707 15.9398 9.63173 15.8326 9.52456C15.7255 9.4174 15.5801 9.3572 15.4286 9.3572Z" fill="#555555"/>
<path fill-rule="evenodd" clip-rule="evenodd" d="M0.571429 9.3572C0.419876 9.3572 0.274531 9.4174 0.167367 9.52456C0.0602035 9.63173 0 9.77707 0 9.92862V11.6429C1.51525e-05 11.7945 0.0602242 11.9398 0.167385 12.047C0.274545 12.1541 0.419881 12.2143 0.571429 12.2143H2.28571C2.43727 12.2143 2.58261 12.1541 2.68978 12.047C2.79694 11.9398 2.85714 11.7945 2.85714 11.6429C2.85714 11.4914 2.79694 11.346 2.68978 11.2388C2.58261 11.1317 2.43727 11.0715 2.28571 11.0715H1.14286V9.92862C1.14286 9.77707 1.08265 9.63173 0.97549 9.52456C0.868326 9.4174 0.722981 9.3572 0.571429 9.3572Z" fill="#555555"/>
<path fill-rule="evenodd" clip-rule="evenodd" d="M2.85714 3.07148C2.70559 3.07148 2.56025 3.13168 2.45308 3.23885C2.34592 3.34601 2.28571 3.49136 2.28571 3.64291V9.3572C2.28571 9.50875 2.34592 9.65409 2.45308 9.76126C2.56025 9.86842 2.70559 9.92862 2.85714 9.92862C3.0087 9.92862 3.15404 9.86842 3.2612 9.76126C3.36837 9.65409 3.42857 9.50875 3.42857 9.3572V3.64291C3.42857 3.49136 3.36837 3.34601 3.2612 3.23885C3.15404 3.13168 3.0087 3.07148 2.85714 3.07148Z" fill="#555555"/>
<path fill-rule="evenodd" clip-rule="evenodd" d="M4.57143 3.07148C4.41988 3.07148 4.27453 3.13168 4.16737 3.23885C4.0602 3.34601 4 3.49136 4 3.64291V9.3572C4 9.50875 4.0602 9.65409 4.16737 9.76126C4.27453 9.86842 4.41988 9.92862 4.57143 9.92862C4.72298 9.92862 4.86833 9.86842 4.97549 9.76126C5.08265 9.65409 5.14286 9.50875 5.14286 9.3572V3.64291C5.14286 3.49136 5.08265 3.34601 4.97549 3.23885C4.86833 3.13168 4.72298 3.07148 4.57143 3.07148Z" fill="#555555"/>
<path fill-rule="evenodd" clip-rule="evenodd" d="M6.28571 3.07148C6.13416 3.07148 5.98882 3.13168 5.88165 3.23885C5.77449 3.34601 5.71429 3.49136 5.71429 3.64291V9.3572C5.71429 9.50875 5.77449 9.65409 5.88165 9.76126C5.98882 9.86842 6.13416 9.92862 6.28571 9.92862C6.43727 9.92862 6.58261 9.86842 6.68978 9.76126C6.79694 9.65409 6.85714 9.50875 6.85714 9.3572V3.64291C6.85714 3.49136 6.79694 3.34601 6.68978 3.23885C6.58261 3.13168 6.43727 3.07148 6.28571 3.07148Z" fill="#555555"/>
<path fill-rule="evenodd" clip-rule="evenodd" d="M8 3.07148C7.84845 3.07148 7.7031 3.13168 7.59594 3.23885C7.48878 3.34601 7.42857 3.49136 7.42857 3.64291V9.3572C7.42857 9.50875 7.48878 9.65409 7.59594 9.76126C7.7031 9.86842 7.84845 9.92862 8 9.92862C8.15155 9.92862 8.2969 9.86842 8.40406 9.76126C8.51123 9.65409 8.57143 9.50875 8.57143 9.3572V3.64291C8.57143 3.49136 8.51123 3.34601 8.40406 3.23885C8.2969 3.13168 8.15155 3.07148 8 3.07148Z" fill="#555555"/>
<path fill-rule="evenodd" clip-rule="evenodd" d="M9.71429 3.07148C9.56273 3.07148 9.41739 3.13168 9.31022 3.23885C9.20306 3.34601 9.14286 3.49136 9.14286 3.64291V9.3572C9.14286 9.50875 9.20306 9.65409 9.31022 9.76126C9.41739 9.86842 9.56273 9.92862 9.71429 9.92862C9.86584 9.92862 10.0112 9.86842 10.1183 9.76126C10.2255 9.65409 10.2857 9.50875 10.2857 9.3572V3.64291C10.2857 3.49136 10.2255 3.34601 10.1183 3.23885C10.0112 3.13168 9.86584 3.07148 9.71429 3.07148Z" fill="#555555"/>
<path fill-rule="evenodd" clip-rule="evenodd" d="M11.4286 3.07148C11.277 3.07148 11.1317 3.13168 11.0245 3.23885C10.9173 3.34601 10.8571 3.49136 10.8571 3.64291V9.3572C10.8571 9.50875 10.9173 9.65409 11.0245 9.76126C11.1317 9.86842 11.277 9.92862 11.4286 9.92862C11.5801 9.92862 11.7255 9.86842 11.8326 9.76126C11.9398 9.65409 12 9.50875 12 9.3572V3.64291C12 3.49136 11.9398 3.34601 11.8326 3.23885C11.7255 3.13168 11.5801 3.07148 11.4286 3.07148Z" fill="#555555"/>
<path fill-rule="evenodd" clip-rule="evenodd" d="M13.1429 3.07148C12.9913 3.07148 12.846 3.13168 12.7388 3.23885C12.6316 3.34601 12.5714 3.49136 12.5714 3.64291V9.3572C12.5714 9.50875 12.6316 9.65409 12.7388 9.76126C12.846 9.86842 12.9913 9.92862 13.1429 9.92862C13.2944 9.92862 13.4398 9.86842 13.5469 9.76126C13.6541 9.65409 13.7143 9.50875 13.7143 9.3572V3.64291C13.7143 3.49136 13.6541 3.34601 13.5469 3.23885C13.4398 3.13168 13.2944 3.07148 13.1429 3.07148Z" fill="#555555"/>
</svg>
