<svg width="16" height="9" viewBox="0 0 16 9" fill="none" xmlns="http://www.w3.org/2000/svg">
<path d="M2.74434 7.1987C2.38247 7.1987 2.08809 7.49307 2.08809 7.85495C2.08809 8.21885 2.38247 8.51345 2.74434 8.51345C3.10597 8.51345 3.38653 8.3187 3.51653 7.89885C3.55819 7.7691 3.61391 7.50485 3.65103 7.24964C3.41441 7.16607 3.18478 7.06417 2.96694 6.95051C2.91125 7.14073 2.80931 7.1987 2.74434 7.1987Z" fill="#555555"/>
<path d="M13.207 7.1987C13.142 7.1987 13.0399 7.14073 12.9844 6.95051C12.7663 7.0642 12.5367 7.16607 12.3003 7.24964C12.3397 7.50485 12.3954 7.7691 12.4348 7.89885C12.5645 8.3187 12.8451 8.51345 13.207 8.51345C13.5708 8.51345 13.8655 8.21882 13.8655 7.85495C13.8655 7.49307 13.5709 7.1987 13.207 7.1987Z" fill="#555555"/>
<path d="M15.1895 0.486511H0.810469C0.36275 0.486511 0 0.849261 0 1.29698V1.7621C0.00025 1.95685 0.0564063 2.15251 0.187281 2.31123C0.247063 2.38345 0.32475 2.44439 0.412594 2.48945C0.550719 5.18395 2.77853 7.3257 5.50725 7.32595H10.4928C13.2213 7.3257 15.4488 5.18439 15.5872 2.49036C15.7238 2.4206 15.8308 2.3101 15.8972 2.18601C15.9681 2.0542 15.9998 1.90885 16 1.7621V1.29698C16 0.849261 15.6372 0.486511 15.1895 0.486511ZM13.6083 5.33998C12.8098 6.13779 11.7106 6.63007 10.4928 6.63029H5.50725C4.28938 6.63004 3.19022 6.13776 2.39175 5.33998C1.61956 4.56735 1.13791 3.51164 1.10734 2.34045H14.8927C14.8621 3.51164 14.3804 4.56735 13.6083 5.33998ZM15.3043 1.7621C15.3046 1.82254 15.2855 1.85832 15.2776 1.8667L15.2704 1.87304L15.2464 1.87667H0.753625L0.729625 1.87304L0.714906 1.85539C0.706063 1.83951 0.695438 1.80692 0.695656 1.7621V1.29698C0.695906 1.23335 0.746844 1.18242 0.810469 1.18217H15.1895C15.2532 1.18242 15.3041 1.23335 15.3043 1.29698V1.7621Z" fill="#555555"/>
<path d="M2.3005 3.27429C2.62047 4.23579 3.32497 5.02114 4.23187 5.44845C4.34759 5.50304 4.48572 5.45345 4.54031 5.33751C4.59487 5.22179 4.54531 5.08367 4.42938 5.02907C3.63703 4.6561 3.0195 3.96726 2.74072 3.12807C2.70019 3.00648 2.56884 2.94079 2.44747 2.9811C2.32588 3.0216 2.26019 3.15295 2.3005 3.27429Z" fill="#555555"/>
</svg>
