<svg width="16" height="13" viewBox="0 0 16 13" fill="none" xmlns="http://www.w3.org/2000/svg">
<path d="M0.549524 8.76453H15.4349V8.15641C15.4349 8.00926 15.4062 7.87253 15.3554 7.75012C15.3007 7.6199 15.22 7.50401 15.1197 7.40374C15.0585 7.34254 14.9895 7.28654 14.9153 7.23706C14.8397 7.18627 14.759 7.142 14.6744 7.10424C14.4465 7.05475 14.2199 7.00787 13.9946 6.9636C13.768 6.91933 13.5402 6.87766 13.311 6.83859C13.3006 6.83729 13.2927 6.83599 13.2823 6.83338C13.1664 6.81385 13.0557 6.79562 12.9503 6.77869C12.8448 6.76176 12.7328 6.74483 12.6156 6.7266H12.613C11.8161 6.62503 11.0217 6.5469 10.2287 6.49481C9.43436 6.44272 8.64393 6.41668 7.85871 6.41538C7.39253 6.41538 6.92765 6.42319 6.46277 6.44142C6.00049 6.45965 5.53561 6.4857 5.07073 6.52216H5.06812C4.63319 6.56253 4.19956 6.61331 3.76463 6.67191C3.331 6.73051 2.89607 6.79952 2.45853 6.87635L2.41035 6.88807C2.40124 6.89068 2.39212 6.89198 2.38431 6.89198C2.3765 6.89328 2.36868 6.89328 2.36087 6.89328C2.15643 6.92974 1.94677 6.97011 1.73061 7.01308C1.52096 7.05475 1.3113 7.09903 1.10295 7.1446C1.05087 7.17325 1.00138 7.20581 0.954505 7.23966C0.907626 7.27482 0.862049 7.31259 0.821681 7.35295C0.734435 7.4402 0.665419 7.54047 0.61854 7.65246C0.574265 7.75794 0.549524 7.87513 0.549524 8.00275V8.76453ZM1.84911 -0.00701904H13.9582C14.1157 -0.00701904 14.2668 0.0242335 14.4048 0.0815298C14.5481 0.141431 14.677 0.228677 14.7851 0.335457C14.8931 0.443538 14.9804 0.572455 15.039 0.715696C15.0963 0.853728 15.1275 1.00478 15.1275 1.16235V6.72139C15.1939 6.76046 15.2591 6.80343 15.319 6.85031C15.3867 6.9024 15.4505 6.95709 15.5091 7.01569C15.6601 7.16674 15.7825 7.34254 15.8646 7.54047C15.9427 7.72668 15.9857 7.93373 15.9857 8.15771V8.95074C15.9896 8.96376 15.9935 8.97679 15.9961 8.98981V8.99241C15.9987 9.00934 16 9.02497 16 9.04059C16 9.05752 15.9987 9.07445 15.9948 9.09138C15.9922 9.1044 15.9883 9.11742 15.9844 9.13044V12.7323C15.9844 12.8078 15.9531 12.8768 15.9036 12.9263C15.8542 12.9758 15.7851 13.0071 15.7096 13.0071H15.1432C15.0794 13.0071 15.0208 12.9849 14.9739 12.9485C14.927 12.912 14.8918 12.8599 14.8775 12.8C14.7733 12.5005 14.6679 12.2635 14.5546 12.0786C14.4426 11.8963 14.3228 11.7661 14.1847 11.6736C14.0454 11.5812 13.8787 11.5226 13.6769 11.4874C13.4711 11.4509 13.2315 11.4392 12.9464 11.4405L2.5601 11.4535H2.5549C2.35045 11.4496 2.18247 11.4757 2.04183 11.5304C1.9025 11.5851 1.78921 11.6671 1.69545 11.7726C1.58997 11.8898 1.50142 12.0395 1.42069 12.214C1.33865 12.3924 1.26443 12.5956 1.1902 12.8182C1.17197 12.8755 1.13551 12.9211 1.08993 12.9537C1.04696 12.9849 0.994873 13.0032 0.941483 13.0058C0.937576 13.0071 0.93367 13.0071 0.929763 13.0071H0.274762C0.199235 13.0071 0.130219 12.9758 0.0807357 12.9263C0.0312525 12.8768 0 12.8078 0 12.7323V8.00405C0 7.79961 0.0390657 7.61209 0.109384 7.44281C0.184911 7.2631 0.295597 7.10293 0.433629 6.9649C0.472695 6.92584 0.515667 6.88677 0.561244 6.85031C0.600309 6.81906 0.639375 6.78911 0.681045 6.76176V1.15063C0.681045 0.993062 0.712298 0.843311 0.769594 0.707883C0.829495 0.565944 0.916741 0.43833 1.02482 0.33155C1.1329 0.224771 1.26182 0.140128 1.40376 0.0815298C1.54179 0.0242335 1.69154 -0.00701904 1.84911 -0.00701904ZM13.9582 0.542505H1.84911C1.76447 0.542505 1.68373 0.559433 1.60951 0.589384C1.53268 0.620636 1.46496 0.666213 1.40767 0.722207C1.35167 0.776899 1.3061 0.844613 1.27484 0.917535C1.2462 0.989156 1.23057 1.06729 1.23057 1.15063V6.49742C1.26963 6.48439 1.3087 6.47398 1.34907 6.46356C1.41288 6.44663 1.47668 6.43231 1.54049 6.42189C1.62904 6.40626 1.7254 6.38933 1.82958 6.3711C1.90771 6.35808 1.99105 6.34376 2.07699 6.33074V4.96604C2.07699 4.7603 2.11866 4.56367 2.19289 4.38396C2.27102 4.19645 2.38431 4.02847 2.52495 3.88783C2.66558 3.74719 2.83356 3.6339 3.02108 3.55577C3.20078 3.48155 3.39741 3.43988 3.60316 3.43988H6.1841C6.38984 3.43988 6.58647 3.48155 6.76618 3.55577C6.95369 3.6339 7.12167 3.74719 7.26231 3.88783C7.40295 4.02847 7.51624 4.19645 7.59437 4.38396C7.66859 4.56367 7.71026 4.7603 7.71026 4.96604V5.83721C7.80142 5.8359 7.89257 5.8359 7.98502 5.8359V4.96604C7.98502 4.7603 8.0267 4.56367 8.10092 4.38396C8.17905 4.19645 8.29234 4.02847 8.43298 3.88783C8.57362 3.74719 8.7416 3.6339 8.92911 3.55577C9.10881 3.48155 9.30545 3.43988 9.51119 3.43988H12.0921C12.2979 3.43988 12.4945 3.48155 12.6742 3.55577C12.8617 3.6339 13.0297 3.74719 13.1703 3.88783C13.311 4.02847 13.4243 4.19645 13.5024 4.38396C13.5766 4.56367 13.6183 4.7603 13.6183 4.96604V6.31251C13.716 6.32683 13.8201 6.34376 13.9321 6.36199C14.0558 6.38152 14.1743 6.40105 14.2889 6.42059C14.3475 6.43101 14.4074 6.44272 14.4673 6.45705C14.5051 6.46616 14.5415 6.47528 14.5767 6.4857V1.16235C14.5767 1.07901 14.5598 0.999573 14.5298 0.926651C14.4986 0.851124 14.4517 0.78341 14.3944 0.724811C14.3371 0.667515 14.2681 0.620636 14.1939 0.589384C14.1209 0.559433 14.0415 0.542505 13.9582 0.542505ZM5.62676 5.92576C5.8885 5.90622 6.15154 5.88929 6.41849 5.87627C6.66461 5.86325 6.91332 5.85414 7.16204 5.84762V4.96604C7.16204 4.83452 7.136 4.70821 7.08782 4.59362C7.03833 4.47381 6.96541 4.36703 6.87426 4.27588C6.78441 4.18603 6.67632 4.11311 6.55652 4.06232C6.44193 4.01414 6.31562 3.9881 6.1841 3.9881H3.60316C3.47164 3.9881 3.34532 4.01414 3.23073 4.06232C3.11093 4.11181 3.00415 4.18473 2.913 4.27588C2.82315 4.36573 2.75022 4.47381 2.69944 4.59362C2.65126 4.70821 2.62521 4.83452 2.62521 4.96604V6.24349C2.83617 6.21224 3.04973 6.18359 3.2685 6.15494C3.50419 6.12499 3.73859 6.09764 3.97038 6.0716C4.06023 6.06118 4.15659 6.04946 4.25686 6.03905C4.35061 6.02863 4.44828 6.01951 4.55245 6.0091C4.72955 5.99217 4.90535 5.97654 5.07854 5.96222C5.25694 5.9505 5.43924 5.93748 5.62676 5.92576ZM8.53455 5.83981C8.69211 5.84242 8.84968 5.84632 9.00724 5.85153C9.18174 5.85674 9.35623 5.86455 9.52942 5.87237H9.53072C9.8159 5.88278 10.0946 5.8958 10.3654 5.91143C10.6363 5.92706 10.9006 5.94659 11.1533 5.96873C11.5205 6.00128 11.876 6.04035 12.2132 6.08593C12.5153 6.12759 12.8018 6.17447 13.0701 6.22656V4.96604C13.0701 4.83452 13.044 4.70821 12.9958 4.59362C12.9464 4.47381 12.8734 4.36703 12.7823 4.27588C12.6924 4.18603 12.5844 4.11311 12.4646 4.06232C12.35 4.01414 12.2237 3.9881 12.0921 3.9881H9.51249C9.38097 3.9881 9.25466 4.01414 9.14007 4.06232C9.02027 4.11181 8.91349 4.18473 8.82233 4.27588C8.73248 4.36573 8.65956 4.47381 8.60877 4.59362C8.56059 4.70821 8.53455 4.83452 8.53455 4.96604V5.83981ZM15.4362 9.31535H0.549524V12.4575H0.735737C0.80866 12.2518 0.884187 12.0604 0.968829 11.8898C1.05998 11.7075 1.16286 11.546 1.28787 11.4067C1.43631 11.24 1.61081 11.1111 1.82046 11.0251C2.03011 10.9405 2.27492 10.8975 2.56922 10.904L12.9464 10.891C13.281 10.891 13.5675 10.9066 13.8175 10.9548C14.0715 11.003 14.2902 11.085 14.4869 11.2152C14.6692 11.3364 14.8254 11.4965 14.9661 11.7062C15.1002 11.9067 15.22 12.1528 15.3346 12.4562H15.4335V9.31535H15.4362Z" fill="#555555"/>
</svg>
