<svg width="16" height="17" viewBox="0 0 16 17" fill="none" xmlns="http://www.w3.org/2000/svg">
<path d="M8 8.24194C7.57316 8.24194 7.22581 8.58929 7.22581 9.01613C7.22581 9.44297 7.57316 9.79032 8 9.79032C8.42684 9.79032 8.77419 9.44297 8.77419 9.01613C8.77419 8.58929 8.42684 8.24194 8 8.24194ZM8 9.27419C7.85781 9.27419 7.74194 9.15832 7.74194 9.01613C7.74194 8.87394 7.85781 8.75806 8 8.75806C8.14219 8.75806 8.25806 8.87394 8.25806 9.01613C8.25806 9.15832 8.14219 9.27419 8 9.27419Z" fill="#555555"/>
<path d="M8 3.59677C5.01161 3.59677 2.58065 6.02774 2.58065 9.01613C2.58065 12.0045 5.01161 14.4355 8 14.4355C10.9884 14.4355 13.4194 12.0045 13.4194 9.01613C13.4194 6.02774 10.9884 3.59677 8 3.59677ZM12.1187 11.6667C10.4181 12.3852 9.63045 11.3015 9.11716 10.4329C9.2289 10.3446 9.32981 10.2435 9.41806 10.1315C9.88877 10.3957 10.5474 10.7206 11.264 10.7206C11.7525 10.7206 12.2674 10.5679 12.7672 10.1434C12.6374 10.6925 12.4165 11.2058 12.1187 11.6667ZM8 10.3065C7.28852 10.3065 6.70968 9.72761 6.70968 9.01613C6.70968 8.30465 7.28852 7.72581 8 7.72581C8.71148 7.72581 9.29032 8.30465 9.29032 9.01613C9.29032 9.72761 8.71148 10.3065 8 10.3065ZM6.58323 10.1333C6.67148 10.245 6.77264 10.3459 6.88464 10.4342C6.44026 11.2257 5.82529 12.5503 6.872 13.7831C6.3231 13.6533 5.81006 13.4324 5.34942 13.1348C4.63097 11.4342 5.71458 10.6466 6.58323 10.1333ZM3.88103 6.36555C5.58219 5.64787 6.36929 6.73097 6.88258 7.59935C6.77084 7.68761 6.66994 7.78877 6.58168 7.90077C5.79019 7.45639 4.46555 6.84142 3.23277 7.88813C3.36284 7.33923 3.58374 6.82619 3.88103 6.36555ZM9.41677 7.89897C9.32852 7.78723 9.22735 7.68632 9.11535 7.59806C9.55974 6.80658 10.1747 5.48194 9.128 4.24916C9.6769 4.37897 10.1899 4.59987 10.6506 4.89742C11.369 6.59806 10.2854 7.38568 9.41677 7.89897ZM12.8911 9.25329C11.7778 10.7243 10.5551 10.1803 9.67665 9.68477C9.72878 9.55419 9.76542 9.41639 9.78607 9.2729C10.6947 9.26206 12.1512 9.132 12.6942 7.60503C12.8289 8.05226 12.9032 8.52555 12.9032 9.01613C12.9032 9.09613 12.895 9.17432 12.8911 9.25329ZM12.3551 6.77303C12.1275 8.60658 10.7948 8.74671 9.78581 8.75703C9.76516 8.61381 9.72852 8.47574 9.67587 8.34542C10.4557 7.88245 11.6483 7.04374 11.3613 5.45613C11.7621 5.83471 12.0994 6.27858 12.3551 6.77303ZM8.23716 4.12503C9.70787 5.23806 9.16413 6.46103 8.66864 7.33948C8.53806 7.28736 8.40026 7.25071 8.25677 7.23006C8.24594 6.32142 8.11587 4.8649 6.5889 4.32194C7.03613 4.18723 7.50942 4.1129 8 4.1129C8.08 4.1129 8.15794 4.12116 8.23716 4.12503ZM5.7569 4.66103C7.59045 4.88865 7.73058 6.22129 7.7409 7.23032C7.59768 7.25097 7.45961 7.28761 7.32929 7.34026C6.86632 6.56039 6.02787 5.36735 4.44 5.65484C4.81858 5.25381 5.26271 4.91677 5.7569 4.66103ZM3.1089 8.77897C4.22219 7.308 5.4449 7.85226 6.32336 8.34748C6.27123 8.47807 6.23458 8.61587 6.21394 8.75936C5.30529 8.77019 3.84877 8.90026 3.30581 10.4272C3.1711 9.98 3.09677 9.50671 3.09677 9.01613C3.09677 8.93613 3.10503 8.85794 3.1089 8.77897ZM3.6449 11.2592C3.87252 9.42568 5.20516 9.28555 6.21419 9.27523C6.23484 9.41845 6.27148 9.55652 6.32413 9.68684C5.54426 10.1498 4.35174 10.9885 4.63871 12.5761C4.23794 12.1975 3.90065 11.7537 3.6449 11.2592ZM7.76284 13.9072C6.29213 12.7942 6.83587 11.5712 7.33136 10.6928C7.46194 10.7449 7.59974 10.7815 7.74323 10.8022C7.75406 11.7108 7.88413 13.1674 9.4111 13.7103C8.96387 13.845 8.49058 13.9194 8 13.9194C7.92 13.9194 7.84206 13.9111 7.76284 13.9072ZM10.2431 13.3712C8.40955 13.1436 8.26942 11.811 8.2591 10.8019C8.40232 10.7813 8.54039 10.7444 8.67097 10.692C9.08594 11.3911 9.80129 12.4221 11.089 12.4221C11.2387 12.4221 11.3985 12.4032 11.5641 12.373C11.1845 12.7759 10.7391 13.1145 10.2431 13.3712Z" fill="#555555"/>
<path d="M16 7.46774H14.9677V1.53226H13.9355V0.5H11.871V1.53226H4.12903V0.5H2.06452V1.53226H1.03226V7.46774H0V9.53226H1.03226V15.4677H2.06452V16.5H4.12903V15.4677H11.871V16.5H13.9355V15.4677H14.9677V9.53226H16V7.46774ZM14.4516 4.1129H13.6774C13.5352 4.1129 13.4194 3.99703 13.4194 3.85484V2.04839H14.4516V4.1129ZM12.3871 1.01613H13.4194V1.53226H12.3871V1.01613ZM2.58065 1.01613H3.6129V1.53226H2.58065V1.01613ZM12.9032 2.04839V2.56452H1.54839V2.04839H12.9032ZM0.516129 9.01613V7.98387H1.03226V9.01613H0.516129ZM3.6129 15.9839H2.58065V15.4677H3.6129V15.9839ZM13.4194 15.9839H12.3871V15.4677H13.4194V15.9839ZM1.54839 14.9516V3.08065H12.9032V3.85484C12.9032 4.28168 13.2506 4.62903 13.6774 4.62903H14.4516V14.9516H1.54839ZM15.4839 9.01613H14.9677V7.98387H15.4839V9.01613Z" fill="#555555"/>
<path d="M13.9355 13.9194H13.4194V14.4355H13.9355V13.9194Z" fill="#555555"/>
<path d="M13.9355 12.8871H13.4194V13.4032H13.9355V12.8871Z" fill="#555555"/>
<path d="M2.58065 13.9194H2.06452V14.4355H2.58065V13.9194Z" fill="#555555"/>
<path d="M2.58065 12.8871H2.06452V13.4032H2.58065V12.8871Z" fill="#555555"/>
</svg>
