<svg width="18" height="17" viewBox="0 0 18 17" fill="none" xmlns="http://www.w3.org/2000/svg">
<path d="M1 16.5H16.9825M4.95237 6.78392L8.99123 3.6125L13.0301 6.78392M2.14196 9.44516V16.5M15.8405 9.44516V16.4962M1 9.44516H16.9825M8.99123 3.61125V0.5H10.5581M5.56659 9.44892H12.4159V16.5H5.56659V9.44641V9.44892ZM4.17267 6.78518H13.8098V9.4439H4.17267V6.78518ZM7.75399 13.6984C7.75399 13.5452 7.78419 13.3935 7.84285 13.252C7.90152 13.1104 7.9875 12.9819 8.09589 12.8736C8.20427 12.7653 8.33293 12.6795 8.47452 12.621C8.6161 12.5625 8.76783 12.5324 8.92103 12.5326C9.07423 12.5324 9.22595 12.5625 9.36754 12.621C9.50912 12.6795 9.63778 12.7653 9.74617 12.8736C9.85455 12.9819 9.94054 13.1104 9.9992 13.252C10.0579 13.3935 10.0881 13.5452 10.0881 13.6984V16.5H7.75399V13.6984Z" stroke="#555555" stroke-linecap="round" stroke-linejoin="round"/>
</svg>
