<svg width="16" height="17" viewBox="0 0 16 17" fill="none" xmlns="http://www.w3.org/2000/svg">
<path d="M8 0.5C6.41775 0.5 4.87103 0.969192 3.55544 1.84824C2.23985 2.72729 1.21447 3.97672 0.608967 5.43853C0.00346614 6.90034 -0.15496 8.50887 0.153721 10.0607C0.462403 11.6126 1.22433 13.038 2.34315 14.1569C3.46197 15.2757 4.88743 16.0376 6.43928 16.3463C7.99113 16.655 9.59966 16.4965 11.0615 15.891C12.5233 15.2855 13.7727 14.2602 14.6518 12.9446C15.5308 11.629 16 10.0822 16 8.5C15.9975 6.37903 15.1539 4.34565 13.6541 2.8459C12.1544 1.34615 10.121 0.502491 8 0.5ZM8 15.5588C6.6039 15.5588 5.23915 15.1448 4.07833 14.3692C2.91751 13.5936 2.01277 12.4911 1.4785 11.2013C0.944235 9.91146 0.804447 8.49217 1.07681 7.12289C1.34918 5.75361 2.02147 4.49585 3.00866 3.50866C3.99585 2.52146 5.25362 1.84918 6.62289 1.57681C7.99217 1.30444 9.41146 1.44423 10.7013 1.9785C11.9911 2.51276 13.0936 3.41751 13.8692 4.57833C14.6448 5.73914 15.0588 7.1039 15.0588 8.5C15.0567 10.3715 14.3124 12.1657 12.989 13.489C11.6657 14.8124 9.87148 15.5567 8 15.5588ZM11.5545 4.31412L6.5349 6.82392C6.44355 6.8695 6.3695 6.94355 6.32392 7.0349L3.81412 12.0545C3.7783 12.1263 3.76141 12.206 3.76505 12.2861C3.7687 12.3662 3.79277 12.4441 3.83496 12.5123C3.87716 12.5805 3.93609 12.6368 4.00615 12.6758C4.07622 12.7148 4.15509 12.7353 4.2353 12.7353C4.30823 12.7352 4.38015 12.7183 4.44549 12.6859L9.4651 10.1761C9.55645 10.1305 9.6305 10.0564 9.67608 9.9651L12.1859 4.94549C12.2301 4.85715 12.2453 4.75714 12.2295 4.65964C12.2137 4.56215 12.1676 4.4721 12.0977 4.40226C12.0279 4.33241 11.9379 4.28632 11.8404 4.2705C11.7429 4.25468 11.6429 4.26994 11.5545 4.31412ZM8.90431 9.40431L5.28785 11.2122L7.09177 7.59568L10.7082 5.79176L8.90431 9.40431Z" fill="#555555"/>
</svg>
