<svg width="16" height="17" viewBox="0 0 16 17" fill="none" xmlns="http://www.w3.org/2000/svg">
<path d="M6.72293 6.72227C6.72293 6.30189 6.3962 5.96544 5.99866 5.96544C5.60122 5.96544 5.27438 6.30196 5.27438 6.72227C5.27438 7.14259 5.60122 7.47911 5.99866 7.47911C6.3962 7.47911 6.72293 7.14266 6.72293 6.72227ZM7.46711 6.72227C7.46711 7.54886 6.81217 8.22329 5.99866 8.22329C5.18527 8.22329 4.5302 7.5488 4.5302 6.72227C4.5302 5.89575 5.18527 5.22126 5.99866 5.22126C6.81217 5.22126 7.46711 5.89569 7.46711 6.72227ZM10.6698 10.2219C10.6698 9.80153 10.343 9.46508 9.94549 9.46508C9.54806 9.46508 9.22122 9.8016 9.22122 10.2219C9.22122 10.6422 9.54806 10.9787 9.94549 10.9787C10.343 10.9787 10.6698 10.6423 10.6698 10.2219ZM11.414 10.2219C11.414 11.0485 10.759 11.7229 9.94549 11.7229C9.1321 11.7229 8.47703 11.0484 8.47703 10.2219C8.47703 9.39538 9.1321 8.72089 9.94549 8.72089C10.759 8.72089 11.414 9.39533 11.414 10.2219ZM9.67858 6.12436L5.29328 10.6401C5.15011 10.7875 5.15356 11.0231 5.30098 11.1662C5.4484 11.3094 5.68398 11.306 5.82714 11.1585L10.2124 6.64282C10.3556 6.4954 10.3522 6.25983 10.2047 6.11666C10.0573 5.97349 9.82175 5.97694 9.67858 6.12436Z" fill="#555555"/>
<path d="M13.7674 15.7558C14.5895 15.7558 15.2558 15.0895 15.2558 14.2674V2.73256C15.2558 1.91052 14.5895 1.24419 13.7674 1.24419H2.23256C1.41052 1.24419 0.744186 1.91052 0.744186 2.73256V14.2674C0.744186 15.0895 1.41052 15.7558 2.23256 15.7558H13.7674ZM13.7674 16.5H2.23256C0.999528 16.5 0 15.5005 0 14.2674V2.73256C0 1.49953 0.999528 0.5 2.23256 0.5H13.7674C15.0005 0.5 16 1.49953 16 2.73256V14.2674C16 15.5005 15.0005 16.5 13.7674 16.5Z" fill="#555555"/>
</svg>
