<svg width="16" height="15" viewBox="0 0 16 15" fill="none" xmlns="http://www.w3.org/2000/svg">
<path d="M1 7C1 5.14348 1.7375 3.36301 3.05025 2.05025C4.36301 0.737498 6.14348 0 8 0C9.85652 0 11.637 0.737498 12.9497 2.05025C14.2625 3.36301 15 5.14348 15 7V12C15 12.2652 14.8946 12.5196 14.7071 12.7071C14.5196 12.8946 14.2652 13 14 13H2C1.73478 13 1.48043 12.8946 1.29289 12.7071C1.10536 12.5196 1 12.2652 1 12V7ZM8 1C6.4087 1 4.88258 1.63214 3.75736 2.75736C2.63214 3.88258 2 5.4087 2 7V12H5.505C4.885 11.384 4.5 10.519 4.5 9.5C4.5 8.43 4.834 7.592 5.17 7.024C5.34544 6.72578 5.55447 6.44864 5.793 6.198C5.813 6.178 5.83 6.161 5.843 6.15L5.863 6.13L5.865 6.129C5.95362 6.04932 6.06774 6.00284 6.18687 5.99973C6.306 5.99661 6.42234 6.03606 6.515 6.111C6.53505 5.80251 6.60251 5.49895 6.715 5.211C6.964 4.582 7.464 3.969 8.364 3.487C8.44012 3.44625 8.5255 3.4259 8.61181 3.42794C8.69813 3.42998 8.78245 3.45434 8.85656 3.49864C8.93067 3.54295 8.99205 3.60569 9.03471 3.68075C9.07737 3.75582 9.09986 3.84066 9.1 3.927C9.1 5.07 9.61 5.837 10.201 6.635L10.329 6.805C10.873 7.532 11.5 8.368 11.5 9.5C11.5 10.519 11.115 11.384 10.495 12H14V7C14 5.4087 13.3679 3.88258 12.2426 2.75736C11.1174 1.63214 9.5913 1 8 1ZM6.215 7.248C5.74646 7.90514 5.49634 8.69294 5.5 9.5C5.5 10.987 6.606 12 8 12C9.394 12 10.5 10.987 10.5 9.5C10.5 8.712 10.07 8.135 9.482 7.343L9.399 7.231C8.92 6.587 8.391 5.834 8.187 4.817C7.94928 5.02516 7.76365 5.28614 7.645 5.579C7.487 5.98 7.491 6.379 7.528 6.704C7.537 6.785 7.548 6.86 7.558 6.931L7.566 6.977L7.589 7.131C7.595 7.178 7.609 7.28 7.595 7.381C7.58176 7.48493 7.53947 7.58302 7.473 7.664C7.41899 7.72878 7.35017 7.7796 7.27236 7.81215C7.19456 7.8447 7.11005 7.85803 7.026 7.851C6.93916 7.8432 6.85514 7.81622 6.78 7.772C6.73819 7.74754 6.6984 7.71979 6.661 7.689C6.59055 7.63012 6.52313 7.56771 6.459 7.502C6.37658 7.41838 6.29525 7.33371 6.215 7.248ZM0.5 14C0.367392 14 0.240215 14.0527 0.146447 14.1464C0.0526785 14.2402 0 14.3674 0 14.5C0 14.6326 0.0526785 14.7598 0.146447 14.8536C0.240215 14.9473 0.367392 15 0.5 15H15.5C15.6326 15 15.7598 14.9473 15.8536 14.8536C15.9473 14.7598 16 14.6326 16 14.5C16 14.3674 15.9473 14.2402 15.8536 14.1464C15.7598 14.0527 15.6326 14 15.5 14H0.5Z" fill="#555555"/>
</svg>
