<svg width="16" height="17" viewBox="0 0 16 17" fill="none" xmlns="http://www.w3.org/2000/svg">
<path d="M15.4782 0.5H0.52175C0.467063 0.5 0.406063 0.50925 0.344625 0.5315C0.136625 0.606406 -9.37007e-05 0.802688 4.92743e-08 1.02191C4.92743e-08 1.60656 4.92743e-08 15.4491 4.92743e-08 15.9781C-0.000124951 16.2681 0.237594 16.5 0.52175 16.5H15.4783C15.7628 16.5 16.0002 16.268 16 15.9781C16 15.449 16 1.60603 16 1.02191C16.0001 0.737906 15.7692 0.5 15.4782 0.5ZM14.2187 1.54347L10.087 5.67519L8.73784 4.32606L11.5205 1.54344L14.2187 1.54347ZM12.1739 5.06394L13.523 6.41306L10.087 9.84913L8.73784 8.5L12.1739 5.06394ZM10.0448 1.54347L8 3.58825L5.95525 1.5435L10.0448 1.54347ZM9.34913 6.41303L8 7.76216L4.56394 4.32609L5.91306 2.97697L9.34913 6.41303ZM7.26216 8.5L3.82609 11.9361L2.47697 10.5869L5.91303 7.15088L7.26216 8.5ZM4.47956 1.54347L5.17522 2.23913L3.82609 3.58825L1.78131 1.54347H4.47956ZM1.04347 2.28131L5.17519 6.41303L3.82606 7.76216L1.04344 4.97953L1.04347 2.28131ZM1.04347 6.45522L3.08825 8.5L1.0435 10.5448L1.04347 6.45522ZM1.04347 12.0204L1.73913 11.3248L3.08825 12.6739L1.0435 14.7187L1.04347 12.0204ZM1.78131 15.4565L5.91303 11.3248L7.26216 12.6739L4.47953 15.4566L1.78131 15.4565ZM5.95522 15.4565L8 13.4118L10.0448 15.4565L5.95522 15.4565ZM6.65088 10.587L8 9.23784L11.4361 12.6739L10.0869 14.023L6.65088 10.587ZM11.5204 15.4565L10.8248 14.7609L12.1739 13.4118L14.2187 15.4565L11.5204 15.4565ZM14.9565 14.7187L10.8248 10.587L12.1739 9.23784L14.9566 12.0205L14.9565 14.7187ZM14.9565 10.5448L12.9118 8.5L14.9565 6.45525L14.9565 10.5448ZM14.9565 4.97956L14.2609 5.67522L12.9118 4.32609L14.9565 2.28134L14.9565 4.97956Z" fill="#555555"/>
</svg>
