<svg width="16" height="17" viewBox="0 0 16 17" fill="none" xmlns="http://www.w3.org/2000/svg">
<path d="M1.1428 0.5C0.516373 0.5 0 1.01595 0 1.6428V14.2151C0 14.8418 0.516178 15.3579 1.1428 15.3579H1.52076V16.1191C1.52077 16.2201 1.56091 16.317 1.63235 16.3884C1.70378 16.4599 1.80067 16.5 1.9017 16.5H3.42544C3.52646 16.5 3.62335 16.4599 3.69479 16.3884C3.76622 16.317 3.80636 16.2201 3.80637 16.1191V15.3579L6.85385 15.3572C6.85385 15.9838 7.37003 16.5 7.99665 16.5H14.8535C15.4801 16.5 15.9963 15.9838 15.9963 15.3572V7.7385C15.9963 7.11188 15.4801 6.5957 14.8535 6.5957H11.0441V1.64355C11.0441 1.01689 10.528 0.500744 9.90132 0.500744L1.1428 0.5ZM1.1428 1.26187L9.90132 1.26261C10.1158 1.26261 10.2823 1.42911 10.2823 1.64355V4.69102H0.761869V1.6428C0.761869 1.42779 0.928132 1.26187 1.1428 1.26187ZM2.27668 2.01927C2.17578 2.02085 2.07963 2.0624 2.00933 2.13479C1.93902 2.20719 1.90032 2.30451 1.9017 2.40542V3.54822C1.90098 3.5987 1.91031 3.64882 1.92913 3.69566C1.94796 3.7425 1.9759 3.78514 2.01135 3.82109C2.04679 3.85703 2.08902 3.88558 2.1356 3.90506C2.18217 3.92455 2.23215 3.93458 2.28263 3.93458C2.33312 3.93458 2.3831 3.92455 2.42967 3.90506C2.47624 3.88558 2.51847 3.85703 2.55392 3.82109C2.58936 3.78514 2.61731 3.7425 2.63613 3.69566C2.65495 3.64882 2.66428 3.5987 2.66357 3.54822V2.40542C2.66426 2.35445 2.65473 2.30387 2.63552 2.25665C2.61632 2.20944 2.58783 2.16656 2.55176 2.13055C2.51568 2.09455 2.47275 2.06615 2.4255 2.04703C2.37825 2.02792 2.32764 2.01848 2.27668 2.01927ZM0.761869 5.45289H10.2823V6.5957H7.99665C7.37003 6.5957 6.85385 7.11188 6.85385 7.7385V14.5953L3.45222 14.5961C3.44875 14.596 3.44528 14.596 3.4418 14.5961C3.43635 14.5957 3.4309 14.5955 3.42544 14.5953H1.9017C1.89797 14.5955 1.89425 14.5958 1.89054 14.5961H1.1428C0.927564 14.5961 0.761869 14.4304 0.761869 14.2151V5.45289ZM2.27668 6.20956C2.17578 6.21113 2.07963 6.25268 2.00933 6.32507C1.93902 6.39747 1.90032 6.4948 1.9017 6.5957V8.11944C1.90098 8.16991 1.91031 8.22003 1.92913 8.26687C1.94796 8.31372 1.9759 8.35635 2.01135 8.3923C2.04679 8.42825 2.08902 8.4568 2.1356 8.47628C2.18217 8.49576 2.23215 8.5058 2.28263 8.5058C2.33312 8.5058 2.3831 8.49576 2.42967 8.47628C2.47624 8.4568 2.51847 8.42825 2.55392 8.3923C2.58936 8.35635 2.61731 8.31372 2.63613 8.26687C2.65495 8.22003 2.66428 8.16991 2.66357 8.11944V6.5957C2.66426 6.54473 2.65473 6.49415 2.63552 6.44693C2.61632 6.39972 2.58783 6.35684 2.55176 6.32083C2.51568 6.28483 2.47275 6.25643 2.4255 6.23731C2.37825 6.2182 2.32764 6.20876 2.27668 6.20956ZM7.99665 7.35757H14.8535C15.0687 7.35757 15.2344 7.52326 15.2344 7.7385V15.3572C15.2344 15.5724 15.0687 15.7381 14.8535 15.7381H7.99665C7.78141 15.7381 7.61572 15.5724 7.61572 15.3572V7.7385C7.61572 7.52326 7.78141 7.35757 7.99665 7.35757ZM12.5679 8.11944C12.4668 8.11944 12.3699 8.15957 12.2985 8.23101C12.2271 8.30245 12.1869 8.39934 12.1869 8.50037C12.1869 8.6014 12.2271 8.69829 12.2985 8.76973C12.3699 8.84117 12.4668 8.88131 12.5679 8.88131C12.6689 8.88131 12.7658 8.84117 12.8372 8.76973C12.9087 8.69829 12.9488 8.6014 12.9488 8.50037C12.9488 8.39934 12.9087 8.30245 12.8372 8.23101C12.7658 8.15957 12.6689 8.11944 12.5679 8.11944ZM14.0916 8.11944C13.9906 8.11944 13.8937 8.15957 13.8222 8.23101C13.7508 8.30245 13.7107 8.39934 13.7107 8.50037C13.7107 8.6014 13.7508 8.69829 13.8222 8.76973C13.8937 8.84117 13.9906 8.88131 14.0916 8.88131C14.1926 8.88131 14.2895 8.84117 14.361 8.76973C14.4324 8.69829 14.4725 8.6014 14.4725 8.50037C14.4725 8.39934 14.4324 8.30245 14.361 8.23101C14.2895 8.15957 14.1926 8.11944 14.0916 8.11944ZM11.4251 9.64318C10.6949 9.64318 10.0989 9.93069 9.7116 10.3664C9.32434 10.802 9.13945 11.368 9.13945 11.9288C9.13945 12.4896 9.32434 13.0555 9.7116 13.4912C10.0989 13.9269 10.6949 14.2144 11.4251 14.2144C12.1552 14.2144 12.7513 13.9269 13.1385 13.4912C13.5258 13.0555 13.7107 12.4896 13.7107 11.9288C13.7107 11.368 13.5258 10.802 13.1385 10.3664C12.7513 9.93069 12.1552 9.64318 11.4251 9.64318ZM11.4251 10.405C11.9647 10.405 12.321 10.5937 12.5686 10.8723C12.8162 11.1509 12.9488 11.5373 12.9488 11.9288C12.9488 12.3203 12.8162 12.7067 12.5686 12.9853C12.321 13.2639 11.9647 13.4525 11.4251 13.4525C10.8854 13.4525 10.5291 13.2639 10.2815 12.9853C10.0339 12.7067 9.90132 12.3203 9.90132 11.9288C9.90132 11.5373 10.0339 11.1509 10.2815 10.8723C10.5291 10.5937 10.8854 10.405 11.4251 10.405ZM2.28263 15.3579H3.0445V15.7381H2.28263V15.3579Z" fill="#555555"/>
</svg>
