<svg width="16" height="17" viewBox="0 0 16 17" fill="none" xmlns="http://www.w3.org/2000/svg">
<path d="M0 16.5H16V0.5H0V16.5ZM0.551724 15.9483V5.18966H15.4483V15.9483H0.551724ZM15.4483 1.05172V4.63793H0.551724V1.05172H15.4483Z" fill="#555555"/>
<path d="M8 6.01724C5.4069 6.01724 3.31034 8.11379 3.31034 10.7069C3.31034 13.3 5.4069 15.3966 8 15.3966C10.5931 15.3966 12.6897 13.3 12.6897 10.7069C12.6897 8.11379 10.5931 6.01724 8 6.01724ZM8 14.8448C5.84828 14.8448 4.08276 13.1897 3.88966 11.0931C4.77241 11.0103 5.24138 11.2034 5.73793 11.4241C6.15172 11.6172 6.5931 11.8103 7.22759 11.8103C7.42069 11.8103 7.66897 11.7828 7.91724 11.7552C9.04828 11.5621 9.57241 11.7828 10.1517 12.031C10.5655 12.2241 11.0069 12.4172 11.6414 12.4172C11.6966 12.4172 11.7517 12.4172 11.8069 12.4172C11.1172 13.8241 9.68276 14.8448 8 14.8448ZM11.9724 11.8103C11.2552 11.8931 10.8138 11.7276 10.3448 11.5069C9.76552 11.231 9.07586 10.9552 7.77931 11.1759C6.89655 11.3414 6.45517 11.1483 5.93103 10.9C5.4069 10.6793 4.82759 10.4034 3.83448 10.5138C3.91724 8.3069 5.73793 6.54138 7.97241 6.54138C10.2621 6.54138 12.1103 8.38966 12.1103 10.6793C12.1379 11.0931 12.0828 11.4793 11.9724 11.8103Z" fill="#555555"/>
<path d="M9.37931 3.53448C9.84828 3.53448 10.2069 3.17586 10.2069 2.7069C10.2069 2.23793 9.84828 1.87931 9.37931 1.87931C8.91035 1.87931 8.55172 2.23793 8.55172 2.7069C8.55172 3.17586 8.91035 3.53448 9.37931 3.53448ZM9.37931 2.43103C9.54483 2.43103 9.65517 2.54138 9.65517 2.7069C9.65517 2.87241 9.54483 2.98276 9.37931 2.98276C9.21379 2.98276 9.10345 2.87241 9.10345 2.7069C9.10345 2.54138 9.21379 2.43103 9.37931 2.43103Z" fill="#555555"/>
<path d="M11.5862 3.53448C12.0552 3.53448 12.4138 3.17586 12.4138 2.7069C12.4138 2.23793 12.0552 1.87931 11.5862 1.87931C11.1172 1.87931 10.7586 2.23793 10.7586 2.7069C10.7586 3.17586 11.1172 3.53448 11.5862 3.53448ZM11.5862 2.43103C11.7517 2.43103 11.8621 2.54138 11.8621 2.7069C11.8621 2.87241 11.7517 2.98276 11.5862 2.98276C11.4207 2.98276 11.3103 2.87241 11.3103 2.7069C11.3103 2.54138 11.4207 2.43103 11.5862 2.43103Z" fill="#555555"/>
<path d="M13.7931 3.53448C14.2621 3.53448 14.6207 3.17586 14.6207 2.7069C14.6207 2.23793 14.2621 1.87931 13.7931 1.87931C13.3241 1.87931 12.9655 2.23793 12.9655 2.7069C12.9655 3.17586 13.3241 3.53448 13.7931 3.53448ZM13.7931 2.43103C13.9586 2.43103 14.069 2.54138 14.069 2.7069C14.069 2.87241 13.9586 2.98276 13.7931 2.98276C13.6276 2.98276 13.5172 2.87241 13.5172 2.7069C13.5172 2.54138 13.6276 2.43103 13.7931 2.43103Z" fill="#555555"/>
</svg>
