<svg width="284" height="56" viewBox="0 0 284 56" fill="none" xmlns="http://www.w3.org/2000/svg">
<path d="M48.4474 6.14057V2.43742L45.3197 1.58456L44.6353 2.07077L42.7037 0L30.8725 5.53161L4.10631 25.514V26.9519L4.37655 27.3424V37.0889L0 41.9637V43.5228L0.268637 43.7906V48.396L10.0227 51.0518L14.153 47.8843L29.8219 52.3447L30.6774 51.7102V49.2011L31.704 48.3227L39.9902 50.7362V55.1471L42.814 56L52.3842 48.3594V41.4153L52.7872 41.122V39.5502L45.9673 37.5034L53.8985 31.2401V13.8418L54.3638 13.4751V12.1106L48.4474 6.14057ZM45.454 2.59523L47.141 2.98739L46.0585 3.94705L44.5186 3.38114L45.454 2.59523ZM43.9318 4.11284L45.8298 4.76962V10.2534L43.9318 8.59074V4.11284ZM31.4849 6.28723L38.1944 3.18028L15.9375 19.9218L9.11767 22.9921L31.4849 6.28723ZM4.42452 48.6335L1.03297 47.6468V43.9915L4.42452 45.0515V48.6335ZM9.57659 50.0045L5.18246 48.8535V45.2524L9.57659 46.5134V50.0045ZM9.52063 44.5398L1.03297 42.0721L4.97458 37.6309L13.2799 40.0811L9.52063 44.5398ZM27.0348 42.8883L26.5791 43.035V44.6929L27.0348 44.8634V50.4923L14.4712 47.0809V39.453L5.18246 36.8705V26.8785L15.9136 21.9081L27.0348 33.3124V42.8883ZM42.264 47.2259L27.7928 43.1577L32.3148 36.1994L46.6389 40.3058L42.264 47.2259ZM49.1574 39.4036L46.9204 39.5502L35.6648 36.1994H37.7899L49.1574 39.4036ZM27.7928 31.7645L16.745 20.3602L42.4111 1.20675L43.9142 2.70523L43.1067 3.39867V8.80913L46.2232 12.0627L48.7177 10.0525V7.56571L53.2269 12.1361L27.7928 31.7645Z" fill="white"/>
<path d="M106.624 32.5763H93.8275V11.819H106.624V15.8696H98.9157V20.0685H105.732V23.9708H98.9157V28.5257H106.624V32.5763ZM177.067 28.5224H169.358V23.9675H176.175V20.0652H169.358V15.8663H177.067V11.8157H164.27V32.573H177.067V28.5224ZM283.459 28.5224H275.751V23.9675H282.567V20.0652H275.751V15.8663H283.459V11.8157H270.662V32.573H283.459V28.5224ZM132.547 32.5763H127.16L125.909 28.908H118.111L116.861 32.5763H111.534L119.093 11.819H124.987L132.547 32.5763ZM124.599 25.0057L122.009 17.4055L119.448 25.0057H124.599ZM149.569 28.6707H142.902V11.8157H137.814V32.573H149.569V28.6707ZM254.502 32.5763H259.59V15.8696H265.126V11.819H248.966V15.8696H254.502V32.5763ZM82.102 32.5763L77.7567 24.7388H76.5361V32.5763H71.4478V11.819H79.989C81.6343 11.819 83.0407 12.1057 84.2016 12.6759C85.3625 13.2494 86.2316 14.0305 86.8054 15.0258C87.3793 16.0212 87.6678 17.1319 87.6678 18.3514C87.6678 19.7323 87.2765 20.965 86.4936 22.0493C85.7108 23.1337 84.5532 23.9016 83.0274 24.3564L87.8503 32.5763H82.102ZM81.7902 20.4805C82.2579 20.0257 82.49 19.3863 82.49 18.559C82.49 17.7317 82.2579 17.1484 81.7902 16.6968C81.3225 16.242 80.6259 16.0179 79.6938 16.0179H76.5394V21.1627H79.6938C80.6259 21.1627 81.3258 20.9353 81.7902 20.4838V20.4805ZM239.443 32.5763L238.192 28.908H230.394L229.144 32.5763H223.817L231.376 11.819H237.27L244.83 32.5763H239.443ZM236.882 25.0057L234.292 17.4055L231.731 25.0057H236.882ZM219.654 11.8157H203.494V15.8663H209.03V32.573H214.118V15.8663H219.654V11.8157ZM197.616 29.6166C198.22 28.6509 198.525 27.5765 198.525 26.3933C198.525 25.1507 198.216 24.1356 197.603 23.3479C196.989 22.5602 196.259 21.957 195.417 21.5451C194.574 21.1298 193.476 20.698 192.13 20.2432C190.78 19.8081 189.788 19.406 189.154 19.0303C188.521 18.6546 188.202 18.1338 188.202 17.4615C188.202 16.8518 188.391 16.3837 188.766 16.0575C189.144 15.7312 189.639 15.5697 190.255 15.5697C190.969 15.5697 191.556 15.7608 192.01 16.1464C192.468 16.5321 192.713 17.0594 192.753 17.7285H198.259C198.16 15.7773 197.407 14.2546 195.997 13.1604C194.587 12.0662 192.733 11.519 190.431 11.519C188.129 11.519 186.335 12.0662 184.925 13.1604C183.515 14.2546 182.812 15.7674 182.812 17.6988C182.812 19.0007 183.121 20.0553 183.734 20.8628C184.348 21.6703 185.084 22.2833 185.937 22.6953C186.789 23.1106 187.89 23.5226 189.24 23.9379C190.173 24.2147 190.892 24.4619 191.396 24.6761C191.904 24.8937 192.329 25.1705 192.677 25.5034C193.025 25.8396 193.198 26.2614 193.198 26.7756C193.198 27.3853 192.979 27.8665 192.544 28.2093C192.106 28.5554 191.513 28.7267 190.76 28.7267C190.007 28.7267 189.43 28.5257 188.975 28.1203C188.517 27.7149 188.252 27.1283 188.172 26.3603H182.756C182.796 27.7215 183.177 28.885 183.9 29.8506C184.623 30.8163 185.592 31.548 186.802 32.0391C188.013 32.5335 189.38 32.7774 190.909 32.7774C192.438 32.7774 193.834 32.4906 194.985 31.9204C196.136 31.3503 197.012 30.579 197.619 29.6133L197.616 29.6166ZM121.504 43.8844L119.325 39.2966H117.607L120.735 45.2555V48.6469H122.277V45.2555L125.392 39.2966H123.687L121.508 43.8844H121.504ZM107.334 41.5114C107.746 42.2233 107.951 43.0572 107.951 44.0064C107.951 44.9556 107.746 45.7828 107.334 46.4816C106.923 47.1803 106.342 47.7175 105.586 48.0899C104.833 48.4624 103.954 48.6469 102.953 48.6469H99.8776V39.2966H102.953C103.954 39.2966 104.833 39.4877 105.586 39.8668C106.339 40.2491 106.923 40.7962 107.334 41.5081V41.5114ZM106.366 44.0064C106.366 42.922 106.074 42.075 105.487 41.462C104.9 40.8522 104.057 40.5457 102.956 40.5457H101.427V47.3945H102.956C104.057 47.3945 104.9 47.0979 105.487 46.5079C106.074 45.9147 106.366 45.0808 106.366 44.0064ZM81.1301 48.6469H82.6725V39.2966H81.1301V48.6469ZM93.5986 46.2541L88.9548 39.2867H87.4124V48.6502H88.9548V41.6696L93.5986 48.6502H95.141V39.2867H93.5986V46.2541ZM71.4478 48.6469H72.9902V44.5568H76.1049V43.3043H72.9902V40.5457H76.9838V39.2933H71.4478V48.6469ZM195.752 48.6469H200.949V47.3945H197.294V44.5304H200.545V43.278H197.294V40.5325H200.949V39.2801H195.752V48.6469ZM222.669 46.6299L219.365 39.2966H217.7V48.6469H219.243V42.2431L222.125 48.6469H223.193L226.062 42.2431V48.6469H227.605V39.2966H225.953L222.662 46.6299H222.669ZM244.548 43.3076H240.12V39.2999H238.577V48.6502H240.12V44.5601H244.548V48.6502H246.09V39.2999H244.548V43.3076ZM259.292 41.4916C259.716 42.2167 259.929 43.0374 259.929 43.9536C259.929 44.8699 259.716 45.6906 259.292 46.4222C258.867 47.1539 258.287 47.7241 257.554 48.1295C256.817 48.5382 256.008 48.7425 255.122 48.7425C254.237 48.7425 253.441 48.5382 252.704 48.1295C251.968 47.7208 251.387 47.1506 250.956 46.4222C250.528 45.6906 250.313 44.8699 250.313 43.9536C250.313 43.0374 250.528 42.2167 250.956 41.4916C251.384 40.7665 251.968 40.1963 252.704 39.791C253.441 39.3823 254.247 39.1779 255.122 39.1779C255.998 39.1779 256.817 39.3823 257.554 39.791C258.29 40.1996 258.871 40.7665 259.292 41.4916ZM258.343 43.9536C258.343 43.2648 258.204 42.6584 257.932 42.1376C257.657 41.6169 257.275 41.2181 256.787 40.9412C256.3 40.6644 255.746 40.5226 255.122 40.5226C254.499 40.5226 253.945 40.6611 253.457 40.9412C252.97 41.2181 252.588 41.6202 252.313 42.1376C252.038 42.6584 251.902 43.2648 251.902 43.9536C251.902 44.6425 252.038 45.2522 252.313 45.7762C252.588 46.3003 252.97 46.7057 253.457 46.9858C253.945 47.2693 254.499 47.411 255.122 47.411C255.746 47.411 256.3 47.2693 256.787 46.9858C257.275 46.7024 257.657 46.3003 257.932 45.7762C258.207 45.2522 258.343 44.6425 258.343 43.9536ZM284 40.5358V39.2834H278.802V48.6469H284V47.3945H280.345V44.5304H283.595V43.278H280.345V40.5325H284V40.5358ZM137.777 41.4916C138.202 42.2167 138.414 43.0374 138.414 43.9536C138.414 44.8699 138.202 45.6906 137.777 46.4222C137.353 47.1539 136.772 47.7241 136.039 48.1295C135.303 48.5382 134.494 48.7425 133.608 48.7425C132.722 48.7425 131.926 48.5382 131.19 48.1295C130.454 47.7208 129.873 47.1506 129.442 46.4222C129.014 45.6906 128.798 44.8699 128.798 43.9536C128.798 43.0374 129.014 42.2167 129.442 41.4916C129.87 40.7665 130.454 40.1963 131.19 39.791C131.926 39.3823 132.732 39.1779 133.608 39.1779C134.484 39.1779 135.303 39.3823 136.039 39.791C136.776 40.1996 137.356 40.7665 137.777 41.4916ZM136.829 43.9536C136.829 43.2648 136.69 42.6584 136.418 42.1376C136.142 41.6169 135.761 41.2181 135.273 40.9412C134.786 40.6644 134.232 40.5226 133.608 40.5226C132.984 40.5226 132.431 40.6611 131.943 40.9412C131.455 41.2181 131.074 41.6202 130.799 42.1376C130.523 42.6551 130.387 43.2648 130.387 43.9536C130.387 44.6425 130.523 45.2522 130.799 45.7762C131.074 46.3003 131.455 46.7057 131.943 46.9858C132.431 47.2693 132.984 47.411 133.608 47.411C134.232 47.411 134.786 47.2693 135.273 46.9858C135.761 46.7024 136.142 46.3003 136.418 45.7762C136.693 45.2522 136.829 44.6425 136.829 43.9536ZM269.123 46.6299L265.82 39.2966H264.154V48.6469H265.697V42.2431L268.579 48.6469H269.647L272.517 42.2431V48.6469H274.059V39.2966H272.407L269.117 46.6299H269.123ZM148.435 45.2588C148.435 45.9674 148.246 46.5013 147.874 46.8606C147.5 47.2198 146.975 47.3978 146.295 47.3978C145.616 47.3978 145.105 47.2198 144.733 46.8606C144.358 46.5013 144.173 45.9674 144.173 45.2588V39.2999H142.63V45.2324C142.63 45.9938 142.793 46.6398 143.118 47.1704C143.443 47.701 143.884 48.0932 144.438 48.3536C144.992 48.614 145.609 48.7425 146.286 48.7425C146.962 48.7425 147.579 48.614 148.14 48.3536C148.7 48.0932 149.145 47.6977 149.48 47.1704C149.815 46.6398 149.981 45.9971 149.981 45.2324V39.2999H148.438V45.2588H148.435ZM159.089 44.7743L161.418 48.6502H159.577L157.411 44.9094H156.233V48.6502H154.691V39.2999H157.941C158.665 39.2999 159.275 39.4251 159.776 39.6756C160.277 39.9261 160.651 40.2623 160.9 40.6841C161.149 41.106 161.272 41.5773 161.272 42.0981C161.272 42.7078 161.093 43.2615 160.738 43.7592C160.383 44.2569 159.832 44.5963 159.092 44.7743H159.089ZM157.938 43.6834C158.515 43.6834 158.95 43.5416 159.245 43.2516C159.537 42.9649 159.686 42.5793 159.686 42.0948C159.686 41.6103 159.54 41.2312 159.252 40.9577C158.963 40.6841 158.525 40.549 157.938 40.549H156.233V43.6834H157.938ZM210.157 39.2834L213.527 48.6469H211.902L211.225 46.7353H207.285L206.608 48.6469H204.996L208.366 39.2834H210.157ZM210.794 45.4862L209.265 41.1423L207.723 45.4862H210.798H210.794ZM179.634 41.5114C180.046 42.2233 180.251 43.0572 180.251 44.0064C180.251 44.9556 180.046 45.7828 179.634 46.4816C179.223 47.1803 178.643 47.7175 177.886 48.0899C177.133 48.4624 176.254 48.6469 175.253 48.6469H172.178V39.2966H175.253C176.254 39.2966 177.133 39.4877 177.886 39.8668C178.639 40.2491 179.223 40.7962 179.634 41.5081V41.5114ZM178.666 44.0064C178.666 42.922 178.374 42.075 177.787 41.462C177.2 40.8522 176.357 40.5457 175.256 40.5457H173.727V47.3945H175.256C176.357 47.3945 177.2 47.0979 177.787 46.5079C178.374 45.9147 178.666 45.0808 178.666 44.0064ZM188.889 44.7743L191.217 48.6502H189.376L187.21 44.9094H186.033V48.6502H184.491V39.2999H187.741C188.464 39.2999 189.075 39.4251 189.575 39.6756C190.076 39.9261 190.451 40.2623 190.7 40.6841C190.949 41.106 191.071 41.5773 191.071 42.0981C191.071 42.7078 190.892 43.2615 190.537 43.7592C190.182 44.2569 189.632 44.5963 188.892 44.7743H188.889ZM187.738 43.6834C188.315 43.6834 188.75 43.5416 189.045 43.2516C189.337 42.9649 189.486 42.5793 189.486 42.0948C189.486 41.6103 189.34 41.2312 189.051 40.9577C188.763 40.6841 188.325 40.549 187.738 40.549H186.033V43.6834H187.738Z" fill="white"/>
</svg>
