<svg width="16" height="17" viewBox="0 0 16 17" fill="none" xmlns="http://www.w3.org/2000/svg">
<path d="M0.533333 15.9667H0V16.5H0.533333V15.9667ZM6.93333 6.36667L7.36 6.04667C7.25615 5.90819 7.09155 5.82874 6.91854 5.83354C6.74552 5.83834 6.58559 5.92681 6.48957 6.07083L6.93333 6.36667ZM10.1333 10.6333L9.70667 10.9533C9.80871 11.0894 9.96949 11.1686 10.1395 11.1666C10.3096 11.1647 10.4685 11.0817 10.5673 10.9433L10.1333 10.6333ZM0 0.5V15.9667H1.06667V0.5H0ZM0.533333 16.5H16V15.4333H0.533333V16.5ZM3.11043 13.0626L7.3771 6.66251L6.48957 6.07083L2.2229 12.4708L3.11043 13.0626ZM6.50667 6.68667L9.70667 10.9533L10.56 10.3133L7.36 6.04667L6.50667 6.68667ZM10.5673 10.9433L15.9007 3.47666L15.0326 2.85667L9.69934 10.3233L10.5673 10.9433Z" fill="#555555"/>
</svg>
