<svg width="17" height="17" viewBox="0 0 17 17" fill="none" xmlns="http://www.w3.org/2000/svg">
<path d="M16.5675 8.47795L14.9091 6.81951V3.22727C14.9091 2.92605 14.6649 2.6818 14.3636 2.6818H12.1818C11.8806 2.6818 11.6363 2.92601 11.6363 3.22727V3.54678L8.74929 0.659734C8.53631 0.446755 8.19092 0.446755 7.97791 0.659734C7.77934 0.858337 0.450132 8.18751 0.159758 8.47792C-0.0532527 8.6909 -0.0532527 9.03629 0.159758 9.2493C0.372736 9.46228 0.718128 9.46228 0.931139 9.2493L1.8182 8.3623V15.9545C1.8182 16.2558 2.06242 16.5 2.36367 16.5H14.3636C14.6649 16.5 14.9091 16.2558 14.9091 15.9545V8.36227L15.7962 9.24933C16.0092 9.46234 16.3545 9.46234 16.5675 9.24933C16.7805 9.03635 16.7805 8.69096 16.5675 8.47795ZM13.8182 15.4091H2.9091V7.27137L8.36365 1.81682C8.64726 2.10043 13.5369 6.99008 13.8182 7.27137L13.8182 15.4091ZM13.8182 5.72861L12.7273 4.63771V3.77273H13.8182V5.72861Z" fill="#555555"/>
<path d="M6.72729 9.22728C7.02854 9.22728 7.27275 8.98307 7.27275 8.68182C7.27275 8.38056 7.02854 8.13635 6.72729 8.13635C6.42604 8.13635 6.18182 8.38056 6.18182 8.68182C6.18182 8.98307 6.42604 9.22728 6.72729 9.22728Z" fill="#555555"/>
<path d="M12.2039 11.7507L11.6584 11.2052C11.5561 11.1029 11.4174 11.0454 11.2727 11.0454H10.5454V10.3181C10.5454 10.1734 10.488 10.0347 10.3857 9.93247L9.43609 8.98287C9.4484 8.88065 9.45451 8.78081 9.45451 8.68182C9.45451 7.178 8.23107 5.95456 6.72726 5.95456C5.22344 5.95456 4 7.178 4 8.68182C4 10.1856 5.22344 11.4091 6.72726 11.4091C6.82628 11.4091 6.92615 11.403 7.02835 11.3906L9.79608 14.1584C9.89837 14.2607 10.0371 14.3181 10.1818 14.3181H11.8182C12.1194 14.3181 12.3636 14.0739 12.3636 13.7727V12.1363C12.3636 11.9917 12.3061 11.8529 12.2039 11.7507ZM11.2727 13.2272H10.4077L7.59952 10.419C7.46678 10.2864 7.27524 10.2312 7.09225 10.273C6.95938 10.3033 6.84 10.3181 6.72726 10.3181C5.82497 10.3181 5.09089 9.58407 5.09089 8.68178C5.09089 7.77949 5.82497 7.04542 6.72726 7.04542C7.62955 7.04542 8.36362 7.77949 8.36362 8.68178C8.36362 8.79449 8.34885 8.91394 8.31847 9.04681C8.27665 9.22976 8.3318 9.42134 8.46454 9.55405L9.45455 10.5441V11.5909C9.45455 11.8921 9.69876 12.1363 10 12.1363H11.0468L11.2727 12.3623V13.2272Z" fill="#555555"/>
</svg>
