<svg width="16" height="13" viewBox="0 0 16 13" fill="none" xmlns="http://www.w3.org/2000/svg">
<path d="M15.4667 5.1667H14.7467L12.8947 1.00003C12.8109 0.811517 12.6742 0.651352 12.5012 0.538942C12.3282 0.426532 12.1263 0.366702 11.92 0.366699H4.08C3.87369 0.366702 3.67181 0.426532 3.49882 0.538942C3.32583 0.651352 3.18915 0.811517 3.10533 1.00003L1.25333 5.1667H0.533333C0.391885 5.1667 0.256229 5.22289 0.15621 5.32291C0.0561903 5.42293 0 5.55858 0 5.70003C0 5.84148 0.0561903 5.97714 0.15621 6.07716C0.256229 6.17718 0.391885 6.23337 0.533333 6.23337H1.06667V11.5667C1.06667 11.8496 1.17905 12.1209 1.37909 12.3209C1.57912 12.521 1.85044 12.6334 2.13333 12.6334H3.73333C4.01623 12.6334 4.28754 12.521 4.48758 12.3209C4.68762 12.1209 4.8 11.8496 4.8 11.5667V10.5H11.2V11.5667C11.2 11.8496 11.3124 12.1209 11.5124 12.3209C11.7125 12.521 11.9838 12.6334 12.2667 12.6334H13.8667C14.1496 12.6334 14.4209 12.521 14.6209 12.3209C14.821 12.1209 14.9333 11.8496 14.9333 11.5667V6.23337H15.4667C15.6081 6.23337 15.7438 6.17718 15.8438 6.07716C15.9438 5.97714 16 5.84148 16 5.70003C16 5.55858 15.9438 5.42293 15.8438 5.32291C15.7438 5.22289 15.6081 5.1667 15.4667 5.1667ZM4.08 1.43337H11.92L13.5793 5.1667H2.42067L4.08 1.43337ZM3.73333 11.5667H2.13333V10.5H3.73333V11.5667ZM12.2667 11.5667V10.5H13.8667V11.5667H12.2667ZM13.8667 9.43336H2.13333V6.23337H13.8667V9.43336ZM3.2 7.83337C3.2 7.69192 3.25619 7.55626 3.35621 7.45624C3.45623 7.35622 3.59188 7.30003 3.73333 7.30003H4.8C4.94145 7.30003 5.0771 7.35622 5.17712 7.45624C5.27714 7.55626 5.33333 7.69192 5.33333 7.83337C5.33333 7.97481 5.27714 8.11047 5.17712 8.21049C5.0771 8.31051 4.94145 8.3667 4.8 8.3667H3.73333C3.59188 8.3667 3.45623 8.31051 3.35621 8.21049C3.25619 8.11047 3.2 7.97481 3.2 7.83337ZM10.6667 7.83337C10.6667 7.69192 10.7229 7.55626 10.8229 7.45624C10.9229 7.35622 11.0586 7.30003 11.2 7.30003H12.2667C12.4081 7.30003 12.5438 7.35622 12.6438 7.45624C12.7438 7.55626 12.8 7.69192 12.8 7.83337C12.8 7.97481 12.7438 8.11047 12.6438 8.21049C12.5438 8.31051 12.4081 8.3667 12.2667 8.3667H11.2C11.0586 8.3667 10.9229 8.31051 10.8229 8.21049C10.7229 8.11047 10.6667 7.97481 10.6667 7.83337Z" fill="#555555"/>
</svg>
