<svg width="16" height="14" viewBox="0 0 16 14" fill="none" xmlns="http://www.w3.org/2000/svg">
<path d="M15.7889 3.64577L15.9775 4.48575C16.006 4.61318 16.006 4.73946 15.982 4.85832C16.0036 4.94272 16.0057 5.03094 15.9879 5.11624C15.9702 5.20154 15.9332 5.28166 15.8798 5.35047C15.8264 5.41929 15.7579 5.47497 15.6797 5.51327C15.6014 5.55157 15.5154 5.57147 15.4283 5.57145H14.1398L13.2924 4.44175V4.44061C13.1568 4.25919 12.9806 4.11195 12.7781 4.01066C12.5755 3.90937 12.352 3.85681 12.1255 3.85719H11.9998V2.8915C11.9998 2.47893 11.6638 2.14294 11.2513 2.14294H10.4627C10.0501 2.14294 9.71413 2.47893 9.71413 2.8915V3.85148H6.28562V2.8915C6.28562 2.47893 5.94963 2.14294 5.53706 2.14294H4.74851C4.33594 2.14294 3.99995 2.47893 3.99995 2.8915V3.85719H3.87423C3.41253 3.85719 2.98111 4.0749 2.70283 4.44575L1.85941 5.57145H0.571434C0.484313 5.57147 0.398341 5.55157 0.320091 5.51327C0.241841 5.47497 0.173384 5.41929 0.119954 5.35047C0.0665245 5.28166 0.029537 5.20154 0.0118194 5.11624C-0.00589827 5.03094 -0.00387687 4.94272 0.017729 4.85832C-0.00728665 4.73522 -0.00572803 4.6082 0.0223005 4.48575L0.205154 3.64577C0.408856 2.7336 0.917114 1.91798 1.64624 1.33323C2.37536 0.748479 3.28187 0.429452 4.21651 0.42868H11.7832C12.7174 0.428771 13.6236 0.747663 14.3519 1.33263C15.0803 1.9176 15.5872 2.73362 15.7889 3.64577Z" fill="#212121"/>
<path d="M12.8341 4.78289L14.9255 7.57141C15.6229 8.49895 15.9999 9.62803 15.9997 10.7885V12.6799C15.9997 13.1713 15.5997 13.5713 15.1083 13.5713H0.891428C0.400008 13.5713 1.512e-05 13.1713 1.512e-05 12.6799V10.7885C1.512e-05 9.62852 0.377152 8.49711 1.07428 7.57141L3.15996 4.78861C3.33139 4.56004 3.59424 4.42861 3.87423 4.42861H4.39423C4.49137 4.42861 4.57137 4.34861 4.57137 4.25147V2.8915C4.57137 2.79435 4.65136 2.71436 4.74851 2.71436H5.53706C5.6342 2.71436 5.7142 2.79435 5.7142 2.8915V4.25147C5.7142 4.34861 5.7942 4.42861 5.89134 4.42861H10.1084C10.2056 4.42861 10.2856 4.34861 10.2856 4.25147V2.8915C10.2856 2.79435 10.3656 2.71436 10.4627 2.71436H11.2513C11.3484 2.71436 11.4284 2.79435 11.4284 2.8915V4.25147C11.4284 4.34861 11.5084 4.42861 11.6055 4.42861H12.1255C12.4055 4.42861 12.6684 4.56004 12.8341 4.78289ZM6.68447 7.28571C6.78161 7.28571 6.86218 7.20571 6.85647 7.10742V6.32115C6.85632 6.27401 6.83757 6.22884 6.80429 6.19545C6.77101 6.16207 6.7259 6.14317 6.67876 6.14287H5.89249C5.84525 6.14302 5.79999 6.16185 5.76659 6.19525C5.73319 6.22865 5.71435 6.27391 5.7142 6.32115V7.10742C5.7142 7.20514 5.7942 7.28571 5.8982 7.28571H6.68447ZM8.39873 7.28571C8.42192 7.28588 8.44492 7.28134 8.46631 7.27237C8.4877 7.2634 8.50705 7.25018 8.52318 7.23351C8.53932 7.21684 8.5519 7.19707 8.56017 7.1754C8.56844 7.15373 8.57223 7.1306 8.5713 7.10742V6.32115C8.571 6.27396 8.55212 6.22879 8.51875 6.19542C8.48538 6.16205 8.4402 6.14317 8.39301 6.14287H7.60674C7.5595 6.14302 7.51425 6.16185 7.48084 6.19525C7.44744 6.22865 7.42861 6.27391 7.42846 6.32115V7.10742C7.42846 7.20514 7.50846 7.28571 7.61246 7.28571H8.39873ZM9.32671 7.28571H10.113C10.1362 7.28588 10.1592 7.28134 10.1806 7.27237C10.202 7.2634 10.2213 7.25018 10.2374 7.23351C10.2536 7.21684 10.2662 7.19707 10.2744 7.1754C10.2827 7.15373 10.2865 7.1306 10.2856 7.10742V6.32115C10.2853 6.27396 10.2664 6.22879 10.233 6.19542C10.1996 6.16205 10.1545 6.14317 10.1073 6.14287H9.321C9.27376 6.14302 9.2285 6.16185 9.1951 6.19525C9.1617 6.22865 9.14287 6.27391 9.14272 6.32115V7.10742C9.14272 7.20514 9.22271 7.28571 9.32671 7.28571ZM6.68447 8.99996C6.78161 8.99996 6.86218 8.91996 6.85647 8.82168V8.03541C6.85632 7.98827 6.83757 7.94309 6.80429 7.90971C6.77101 7.87632 6.7259 7.85743 6.67876 7.85712H5.89249C5.84525 7.85728 5.79999 7.87611 5.76659 7.90951C5.73319 7.94291 5.71435 7.98817 5.7142 8.03541V8.82168C5.7142 8.91939 5.7942 8.99996 5.8982 8.99996H6.68447ZM7.61246 8.99996H8.39873C8.42192 9.00014 8.44492 8.9956 8.46631 8.98663C8.4877 8.97766 8.50705 8.96443 8.52318 8.94777C8.53932 8.9311 8.5519 8.91133 8.56017 8.88966C8.56844 8.86798 8.57223 8.84486 8.5713 8.82168V8.03541C8.571 7.98822 8.55212 7.94304 8.51875 7.90967C8.48538 7.8763 8.4402 7.85742 8.39301 7.85712H7.60674C7.5595 7.85728 7.51425 7.87611 7.48084 7.90951C7.44744 7.94291 7.42861 7.98817 7.42846 8.03541V8.82168C7.42846 8.91939 7.50846 8.99996 7.61246 8.99996ZM10.113 8.99996C10.1362 9.00014 10.1592 8.9956 10.1806 8.98663C10.202 8.97766 10.2213 8.96443 10.2374 8.94777C10.2536 8.9311 10.2662 8.91133 10.2744 8.88966C10.2827 8.86798 10.2865 8.84486 10.2856 8.82168V8.03541C10.2853 7.98822 10.2664 7.94304 10.233 7.90967C10.1996 7.8763 10.1545 7.85742 10.1073 7.85712H9.321C9.27376 7.85728 9.2285 7.87611 9.1951 7.90951C9.1617 7.94291 9.14287 7.98817 9.14272 8.03541V8.82168C9.14272 8.91939 9.22271 8.99996 9.32671 8.99996H10.113ZM5.8982 10.7142H6.68447C6.78161 10.7142 6.86218 10.6342 6.85647 10.5359V9.74966C6.85632 9.70253 6.83757 9.65735 6.80429 9.62396C6.77101 9.59058 6.7259 9.57168 6.67876 9.57138H5.89249C5.84525 9.57153 5.79999 9.59036 5.76659 9.62376C5.73319 9.65717 5.71435 9.70243 5.7142 9.74966V10.5359C5.7142 10.6336 5.7942 10.7142 5.8982 10.7142ZM8.39873 10.7142C8.42192 10.7144 8.44492 10.7099 8.46631 10.7009C8.4877 10.6919 8.50705 10.6787 8.52318 10.662C8.53932 10.6454 8.5519 10.6256 8.56017 10.6039C8.56844 10.5822 8.57223 10.5591 8.5713 10.5359V9.74966C8.571 9.70247 8.55212 9.6573 8.51875 9.62393C8.48538 9.59056 8.4402 9.57168 8.39301 9.57138H7.60674C7.5595 9.57153 7.51425 9.59036 7.48084 9.62376C7.44744 9.65717 7.42861 9.70243 7.42846 9.74966V10.5359C7.42846 10.6336 7.50846 10.7142 7.61246 10.7142H8.39873ZM9.32671 10.7142H10.113C10.1362 10.7144 10.1592 10.7099 10.1806 10.7009C10.202 10.6919 10.2213 10.6787 10.2374 10.662C10.2536 10.6454 10.2662 10.6256 10.2744 10.6039C10.2827 10.5822 10.2865 10.5591 10.2856 10.5359V9.74966C10.2853 9.70247 10.2664 9.6573 10.233 9.62393C10.1996 9.59056 10.1545 9.57168 10.1073 9.57138H9.321C9.27376 9.57153 9.2285 9.59036 9.1951 9.62376C9.1617 9.65717 9.14287 9.70243 9.14272 9.74966V10.5359C9.14272 10.6336 9.22271 10.7142 9.32671 10.7142Z" fill="#212121"/>
</svg>
