<svg width="16" height="15" viewBox="0 0 16 15" fill="none" xmlns="http://www.w3.org/2000/svg">
<path d="M8 13.7966C7.4734 13.7966 7.05179 13.9369 6.73516 14.2176C6.41909 14.4983 5.91102 14.6387 5.21095 14.6387C4.51144 14.6387 4.00337 14.4983 3.68674 14.2176C3.37067 13.9369 2.94933 13.7966 2.42274 13.7966C1.98316 13.7966 1.63116 13.8858 1.36674 14.0644C1.10232 14.2434 0.794105 14.3891 0.442105 14.5014C0.336561 14.5357 0.236351 14.5188 0.141474 14.4509C0.0471579 14.383 0 14.2889 0 14.1688C0 14.0385 0.0437894 13.9263 0.131368 13.8319C0.218947 13.7371 0.324772 13.6658 0.448842 13.618C0.719439 13.503 0.985544 13.3634 1.24716 13.1995C1.50821 13.0361 1.90007 12.9545 2.42274 12.9545C3.07958 12.9545 3.56604 13.0948 3.88211 13.3755C4.19818 13.6562 4.64112 13.7966 5.21095 13.7966C5.78133 13.7966 6.22484 13.6562 6.54147 13.3755C6.85754 13.0948 7.34372 12.9545 8 12.9545C8.65684 12.9545 9.14863 13.0948 9.47537 13.3755C9.8021 13.6562 10.2507 13.7966 10.8211 13.7966C11.3909 13.7966 11.8288 13.6562 12.1347 13.3755C12.4401 13.0948 12.921 12.9545 13.5773 12.9545C14.0994 12.9545 14.4912 13.0361 14.7528 13.1995C15.0145 13.3634 15.2806 13.503 15.5512 13.618C15.6752 13.6658 15.7811 13.7368 15.8686 13.8311C15.9562 13.926 16 14.0385 16 14.1688C16 14.2889 15.9528 14.383 15.8585 14.4509C15.7636 14.5188 15.6634 14.5357 15.5579 14.5014C15.2059 14.3891 14.8977 14.2434 14.6333 14.0644C14.3688 13.8858 14.0168 13.7966 13.5773 13.7966C13.0507 13.7966 12.6344 13.9369 12.3284 14.2176C12.023 14.4983 11.5206 14.6387 10.8211 14.6387C10.1215 14.6387 9.60814 14.4983 9.28084 14.2176C8.95354 13.9369 8.5266 13.7966 8 13.7966ZM8 10.0071C7.46667 10.0071 7.04561 10.1474 6.73684 10.4281C6.42919 10.7088 5.92056 10.8492 5.21095 10.8492C4.50189 10.8492 3.99158 10.7088 3.68 10.4281C3.36842 10.1474 2.94933 10.0071 2.42274 10.0071C1.98316 10.0071 1.63116 10.0964 1.36674 10.2749C1.10232 10.454 0.794105 10.5997 0.442105 10.7119C0.336561 10.7462 0.236351 10.7293 0.141474 10.6614C0.0471579 10.5935 0 10.4994 0 10.3793C0 10.2491 0.0437894 10.1368 0.131368 10.0425C0.218947 9.94759 0.324772 9.87629 0.448842 9.82857C0.719439 9.71348 0.985544 9.57397 1.24716 9.41004C1.50821 9.24667 1.90007 9.16499 2.42274 9.16499C3.07958 9.16499 3.56688 9.30534 3.88463 9.58604C4.20239 9.86674 4.64449 10.0071 5.21095 10.0071C5.78133 10.0071 6.22484 9.86674 6.54147 9.58604C6.85698 9.30534 7.34316 9.16499 8 9.16499C8.65684 9.16499 9.1433 9.30534 9.45937 9.58604C9.77544 9.86674 10.2187 10.0071 10.7891 10.0071C11.3589 10.0071 11.8018 9.86674 12.1179 9.58604C12.4345 9.30534 12.921 9.16499 13.5773 9.16499C14.0994 9.16499 14.4912 9.24667 14.7528 9.41004C15.0145 9.57397 15.2806 9.71348 15.5512 9.82857C15.6752 9.87629 15.7811 9.94731 15.8686 10.0416C15.9562 10.1365 16 10.2491 16 10.3793C16 10.4994 15.9528 10.5935 15.8585 10.6614C15.7636 10.7293 15.6634 10.7462 15.5579 10.7119C15.2059 10.5997 14.8977 10.454 14.6333 10.2749C14.3688 10.0964 14.0168 10.0071 13.5773 10.0071C13.0507 10.0071 12.6369 10.1474 12.336 10.4281C12.0351 10.7088 11.5301 10.8492 10.8211 10.8492C10.1182 10.8492 9.60393 10.7088 9.27832 10.4281C8.9527 10.1474 8.5266 10.0071 8 10.0071ZM4.45053 6.78183L7.16884 4.06183L5.87368 2.76667C5.49025 2.38324 5.10737 2.10057 4.72505 1.91867C4.34218 1.73678 3.87958 1.61074 3.33726 1.54057C3.17558 1.51699 3.03354 1.44569 2.91116 1.32667C2.78821 1.20822 2.72674 1.06787 2.72674 0.905621C2.72674 0.740569 2.78625 0.60499 2.90526 0.498885C3.02428 0.392218 3.16463 0.347586 3.32632 0.36499C4.03032 0.435165 4.63439 0.579446 5.13853 0.797832C5.64267 1.01678 6.14512 1.37664 6.6459 1.87741L11.5495 6.78099C11.4406 6.87081 11.3277 6.93959 11.2109 6.98731C11.0947 7.03559 10.9594 7.05973 10.8051 7.05973C10.4289 7.05973 10.0584 6.91938 9.69347 6.63867C9.32856 6.35797 8.76407 6.21762 8 6.21762C7.23593 6.21762 6.67116 6.35797 6.30568 6.63867C5.94077 6.91938 5.57053 7.05973 5.19495 7.05973C5.04056 7.05973 4.90526 7.03559 4.78905 6.98731C4.67228 6.93959 4.55944 6.87081 4.45053 6.78099M11.7314 0.484569C12.2237 0.484569 12.6436 0.659166 12.9912 1.00836C13.3392 1.35811 13.5133 1.77748 13.5133 2.26646C13.5133 2.75881 13.3392 3.17874 12.9912 3.52625C12.6431 3.87376 12.2232 4.0478 11.7314 4.04836C11.239 4.04836 10.8191 3.87432 10.4716 3.52625C10.1235 3.17818 9.94947 2.75825 9.94947 2.26646C9.94947 1.77748 10.1235 1.35811 10.4716 1.00836C10.8191 0.659166 11.239 0.484569 11.7314 0.484569Z" fill="#555555"/>
</svg>
