<svg width="16" height="17" viewBox="0 0 16 17" fill="none" xmlns="http://www.w3.org/2000/svg">
<path d="M3.46667 4.23333C3.62667 4.23333 3.73333 4.12667 3.73333 3.96667V1.03333H13.3333V4.76667H13.8667V0.766667C13.8667 0.606667 13.76 0.5 13.6 0.5H3.46667C3.44 0.5 3.41333 0.5 3.38667 0.526667H3.36C3.33333 0.553333 3.30667 0.553333 3.28 0.58L0.08 3.78C0.0533333 3.80667 0.0533333 3.83333 0.0266667 3.86V3.88667C0.0266667 3.91333 0 3.94 0 3.96667V16.5H0.533333V4.23333H3.46667ZM0.906667 3.7L3.2 1.40667V3.7H0.906667Z" fill="#555555"/>
<path d="M15.8933 8.36667L8.96 3.22C8.85333 3.14 8.74667 3.14 8.64 3.22L1.89333 8.23333H1.86667V8.26L1.70667 8.36667C1.62667 8.42 1.6 8.5 1.6 8.58V9.56667C1.6 9.72667 1.70667 9.83333 1.86667 9.83333H2.66667V16.5H3.2V9.83333H14.4V16.5H14.9333V9.83333H15.7333C15.8933 9.83333 16 9.72667 16 9.56667V8.58C16 8.5 15.9733 8.42 15.8933 8.36667ZM15.4667 9.3H2.13333V8.76667H12.8V8.23333H2.77333L8.8 3.75333L15.4667 8.71333V9.3Z" fill="#555555"/>
<path d="M9.33333 5.56667H8.26667V6.1H9.33333V5.56667Z" fill="#555555"/>
<path d="M10.1333 6.63333H7.46667V7.16667H10.1333V6.63333Z" fill="#555555"/>
<path d="M4.26667 10.3667H3.73333V10.9H4.26667V10.3667Z" fill="#555555"/>
<path d="M5.33333 10.3667H4.8V10.9H5.33333V10.3667Z" fill="#555555"/>
<path d="M6.4 10.3667H5.86667V10.9H6.4V10.3667Z" fill="#555555"/>
<path d="M7.46667 10.3667H6.93333V10.9H7.46667V10.3667Z" fill="#555555"/>
<path d="M8.53333 10.3667H8V10.9H8.53333V10.3667Z" fill="#555555"/>
<path d="M9.6 10.3667H9.06667V10.9H9.6V10.3667Z" fill="#555555"/>
<path d="M10.6667 10.3667H10.1333V10.9H10.6667V10.3667Z" fill="#555555"/>
<path d="M11.7333 10.3667H11.2V10.9H11.7333V10.3667Z" fill="#555555"/>
<path d="M12.8 10.3667H12.2667V10.9H12.8V10.3667Z" fill="#555555"/>
<path d="M13.8667 10.3667H13.3333V10.9H13.8667V10.3667Z" fill="#555555"/>
<path d="M3.73333 11.9667V12.5H4.26667V16.5H4.8V12.5H7.2V16.5H7.73333V12.5H8.26667V11.9667H3.73333Z" fill="#555555"/>
<path d="M6.66667 14.1H6.13333V14.6333H6.66667V14.1Z" fill="#555555"/>
<path d="M13.3333 11.9667H9.6C9.44 11.9667 9.33333 12.0733 9.33333 12.2333V15.4333H9.86667V14.1H11.2V15.4333H11.7333V14.1H13.0667V15.4333H13.6V12.2333C13.6 12.0733 13.4933 11.9667 13.3333 11.9667ZM9.86667 13.5667V12.5H11.2V13.5667H9.86667ZM11.7333 13.5667V12.5H13.0667V13.5667H11.7333Z" fill="#555555"/>
<path d="M12.5333 1.83333H10.9333V2.36667H12.5333V1.83333Z" fill="#555555"/>
<path d="M12.5333 2.9H10.1333V3.43333H12.5333V2.9Z" fill="#555555"/>
</svg>
