<svg width="15" height="17" viewBox="0 0 15 17" fill="none" xmlns="http://www.w3.org/2000/svg">
<path d="M14.9447 7.3035C15.1025 6.62825 14.9885 5.62225 13.5495 4.668L8.1415 1.09775C8.14025 1.09675 8.13875 1.0955 8.1375 1.0945C7.962 0.9575 7.7475 0.882 7.5295 0.87925C7.51575 0.87875 7.5025 0.8785 7.48875 0.8785C7.268 0.8785 7.051 0.95175 6.87325 1.0905C6.86275 1.0985 6.85225 1.107 6.84225 1.11575L3.64475 3.22675V0.978C3.64475 0.702 3.59225 0.5 3.31625 0.5H2.46675C2.19075 0.5 2.145 0.70175 2.145 0.978V4.217L1.46325 4.667C1.44225 4.68075 1.422 4.69525 1.40225 4.71075L1.3725 4.73375C0.578997 5.348 -0.241503 5.983 0.0662472 7.3035C0.249247 8.08675 0.832247 8.58 1.645 8.6675V15.5H0.716747C0.440747 15.5 0.216747 15.724 0.216747 16C0.216747 16.276 0.440747 16.5 0.716747 16.5H14.2167C14.4927 16.5 14.7167 16.276 14.7167 16C14.7167 15.724 14.4927 15.5 14.2167 15.5H13.395V8.66575C14.1932 8.56975 14.7645 8.07775 14.9447 7.3035ZM1.04025 7.0765C0.875997 6.37175 1.2085 6.089 1.96725 5.5015L7.39475 1.887V1.8785L7.51975 1.88275L7.64475 1.8785V1.887L13.0577 5.5015C13.5665 5.839 14.166 6.3715 14.0012 7.0765C13.8935 7.539 13.5385 7.686 13.1197 7.686C12.9002 7.686 12.6507 7.64575 12.4092 7.589L7.509 4.589L2.611 7.589C2.36925 7.64575 2.12675 7.686 1.90725 7.686C1.4885 7.68575 1.14825 7.53875 1.04025 7.0765ZM5.645 15.2092V12.2907C5.645 11.854 5.999 11.5 6.43575 11.5H8.60425C9.041 11.5 9.395 11.854 9.395 12.2907V15.2092C9.395 15.3122 9.374 15.41 9.338 15.5H5.702C5.666 15.41 5.645 15.3122 5.645 15.2092ZM9.85925 15.5C9.88075 15.4062 9.895 15.3095 9.895 15.2092V12.2907C9.895 11.5777 9.317 11 8.60425 11H6.43575C5.72275 11 5.145 11.578 5.145 12.2907V15.2092C5.145 15.3095 5.159 15.4062 5.18075 15.5H2.645V8.60325C2.708 8.59075 2.771 8.57825 2.8375 8.5625C2.9415 8.538 3.04075 8.49725 3.132 8.44175L7.50575 5.76175L11.8797 8.44175C11.9707 8.4975 12.0702 8.53825 12.174 8.5625C12.2505 8.58025 12.3235 8.59525 12.3952 8.60925V15.5H9.85925Z" fill="#555555"/>
<path d="M6.645 13.4585C6.50675 13.4585 6.395 13.5702 6.395 13.7085V13.9585C6.395 14.0967 6.50675 14.2085 6.645 14.2085C6.78325 14.2085 6.895 14.0967 6.895 13.9585V13.7085C6.895 13.5702 6.78325 13.4585 6.645 13.4585Z" fill="#555555"/>
<path d="M6.46675 8.75H8.71675C8.855 8.75 8.96675 8.63825 8.96675 8.5C8.96675 8.36175 8.855 8.25 8.71675 8.25H6.46675C6.3285 8.25 6.21675 8.36175 6.21675 8.5C6.21675 8.63825 6.3285 8.75 6.46675 8.75Z" fill="#555555"/>
<path d="M9.46675 9.25H5.71675C5.5785 9.25 5.46675 9.36175 5.46675 9.5C5.46675 9.63825 5.5785 9.75 5.71675 9.75H9.46675C9.605 9.75 9.71675 9.63825 9.71675 9.5C9.71675 9.36175 9.605 9.25 9.46675 9.25Z" fill="#555555"/>
</svg>
