<svg width="16" height="17" viewBox="0 0 16 17" fill="none" xmlns="http://www.w3.org/2000/svg">
<path d="M8 13.0714L4.52 8.15714C3.95039 7.48461 3.58357 6.66409 3.46226 5.79114C3.34095 4.91819 3.47015 4.02874 3.8348 3.22637C4.19946 2.42401 4.78456 1.74176 5.52198 1.25908C6.25939 0.776399 7.11876 0.513153 8 0.5C9.22157 0.512072 10.3886 1.00777 11.2454 1.87852C12.1022 2.74928 12.579 3.92411 12.5714 5.14571C12.5719 6.21139 12.2091 7.2454 11.5429 8.07714L8 13.0714ZM8 1.64286C7.08106 1.65341 6.20387 2.02822 5.56103 2.68497C4.9182 3.34173 4.56228 4.22676 4.57143 5.14571C4.57526 5.98447 4.87702 6.79457 5.42286 7.43143L8 11.0829L10.6457 7.35714C11.1486 6.7294 11.4245 5.95006 11.4286 5.14571C11.4377 4.22676 11.0818 3.34173 10.439 2.68497C9.79613 2.02822 8.91894 1.65341 8 1.64286Z" fill="#555555"/>
<path d="M8 5.64286C8.63118 5.64286 9.14286 5.13118 9.14286 4.5C9.14286 3.86882 8.63118 3.35714 8 3.35714C7.36882 3.35714 6.85714 3.86882 6.85714 4.5C6.85714 5.13118 7.36882 5.64286 8 5.64286Z" fill="#555555"/>
<path d="M14.8571 6.21429H13.7143V7.35714H14.8571V15.3571H1.14286V7.35714H2.28571V6.21429H1.14286C0.839753 6.21429 0.549062 6.33469 0.334735 6.54902C0.120408 6.76335 0 7.05404 0 7.35714V15.3571C0 15.6602 0.120408 15.9509 0.334735 16.1653C0.549062 16.3796 0.839753 16.5 1.14286 16.5H14.8571C15.1602 16.5 15.4509 16.3796 15.6653 16.1653C15.8796 15.9509 16 15.6602 16 15.3571V7.35714C16 7.05404 15.8796 6.76335 15.6653 6.54902C15.4509 6.33469 15.1602 6.21429 14.8571 6.21429Z" fill="#555555"/>
</svg>
