<svg width="16" height="17" viewBox="0 0 16 17" fill="none" xmlns="http://www.w3.org/2000/svg">
<path d="M3.11111 15.6111V12.3293C3.11111 12.1255 3.17985 11.9548 3.31733 11.8173C3.45481 11.6799 3.62548 11.6111 3.82933 11.6111H7.11111V8.32933C7.11111 8.12548 7.17985 7.95482 7.31733 7.81733C7.45482 7.67985 7.62548 7.61111 7.82933 7.61111H11.1111V4.32933C11.1111 4.12548 11.1799 3.95481 11.3173 3.81733C11.4548 3.67985 11.6255 3.61111 11.8293 3.61111H15.1111V0.944444C15.1111 0.818222 15.1538 0.712741 15.2391 0.628C15.3244 0.542667 15.4302 0.5 15.5564 0.5C15.6827 0.5 15.7881 0.542667 15.8729 0.628C15.9576 0.712741 16 0.818222 16 0.944444V3.78178C16 3.98563 15.9313 4.1563 15.7938 4.29378C15.6563 4.43126 15.4856 4.5 15.2818 4.5H12V7.78178C12 7.98563 11.9313 8.1563 11.7938 8.29378C11.6563 8.43126 11.4856 8.5 11.2818 8.5H8V11.7818C8 11.9856 7.93126 12.1563 7.79378 12.2938C7.6563 12.4313 7.48563 12.5 7.28178 12.5H4V15.7818C4 15.9856 3.93126 16.1563 3.79378 16.2938C3.6563 16.4313 3.48563 16.5 3.28178 16.5H0.444444C0.318222 16.5 0.212741 16.4573 0.128 16.372C0.0426667 16.2867 0 16.1812 0 16.0556C0 15.9299 0.0426667 15.8244 0.128 15.7391C0.212741 15.6538 0.318222 15.6111 0.444444 15.6111H3.11111Z" fill="#555555"/>
</svg>
