<svg width="16" height="15" viewBox="0 0 16 15" fill="none" xmlns="http://www.w3.org/2000/svg">
<path d="M11.8857 1.38384V0.0924072H11.0476V1.38384H4.95238V0.0924072H4.11429V1.38384H0V14.9076H16V1.38384H11.8857ZM0.838095 2.22193H4.11429V3.54003H4.95238V2.22193H11.0476V3.54003H11.8857V2.22193H15.1619V5.10384H0.838095V2.22193ZM15.1619 14.0696H0.838095V5.4086H15.1619V14.0696Z" fill="#555555"/>
<path d="M3.69524 8.52288C3.69524 8.68959 3.76146 8.84947 3.87934 8.96735C3.99722 9.08523 4.1571 9.15145 4.32381 9.15145C4.49052 9.15145 4.6504 9.08523 4.76828 8.96735C4.88616 8.84947 4.95238 8.68959 4.95238 8.52288C4.95238 8.35618 4.88616 8.1963 4.76828 8.07842C4.6504 7.96054 4.49052 7.89431 4.32381 7.89431C4.1571 7.89431 3.99722 7.96054 3.87934 8.07842C3.76146 8.1963 3.69524 8.35618 3.69524 8.52288Z" fill="#555555"/>
<path d="M7.33333 8.52288C7.33333 8.60543 7.34959 8.68717 7.38118 8.76343C7.41277 8.83969 7.45907 8.90898 7.51744 8.96735C7.57581 9.02572 7.6451 9.07202 7.72136 9.10361C7.79762 9.1352 7.87936 9.15145 7.9619 9.15145C8.04445 9.15145 8.12619 9.1352 8.20245 9.10361C8.27871 9.07202 8.348 9.02572 8.40637 8.96735C8.46474 8.90898 8.51104 8.83969 8.54263 8.76343C8.57422 8.68717 8.59048 8.60543 8.59048 8.52288C8.59048 8.44034 8.57422 8.3586 8.54263 8.28234C8.51104 8.20608 8.46474 8.13678 8.40637 8.07842C8.348 8.02005 8.27871 7.97375 8.20245 7.94216C8.12619 7.91057 8.04445 7.89431 7.9619 7.89431C7.87936 7.89431 7.79762 7.91057 7.72136 7.94216C7.6451 7.97375 7.57581 8.02005 7.51744 8.07842C7.45907 8.13678 7.41277 8.20608 7.38118 8.28234C7.34959 8.3586 7.33333 8.44034 7.33333 8.52288Z" fill="#555555"/>
<path d="M10.9733 8.52288C10.9733 8.68959 11.0396 8.84947 11.1574 8.96735C11.2753 9.08523 11.4352 9.15145 11.6019 9.15145C11.7686 9.15145 11.9285 9.08523 12.0464 8.96735C12.1643 8.84947 12.2305 8.68959 12.2305 8.52288C12.2305 8.35618 12.1643 8.1963 12.0464 8.07842C11.9285 7.96054 11.7686 7.89431 11.6019 7.89431C11.4352 7.89431 11.2753 7.96054 11.1574 8.07842C11.0396 8.1963 10.9733 8.35618 10.9733 8.52288Z" fill="#555555"/>
<path d="M3.69524 10.9553C3.69524 11.122 3.76146 11.2819 3.87934 11.3997C3.99722 11.5176 4.1571 11.5838 4.32381 11.5838C4.49052 11.5838 4.6504 11.5176 4.76828 11.3997C4.88616 11.2819 4.95238 11.122 4.95238 10.9553C4.95238 10.7886 4.88616 10.6287 4.76828 10.5108C4.6504 10.3929 4.49052 10.3267 4.32381 10.3267C4.1571 10.3267 3.99722 10.3929 3.87934 10.5108C3.76146 10.6287 3.69524 10.7886 3.69524 10.9553Z" fill="#555555"/>
<path d="M7.33333 10.9553C7.33333 11.0378 7.34959 11.1195 7.38118 11.1958C7.41277 11.2721 7.45907 11.3414 7.51744 11.3997C7.57581 11.4581 7.6451 11.5044 7.72136 11.536C7.79762 11.5676 7.87936 11.5838 7.9619 11.5838C8.04445 11.5838 8.12619 11.5676 8.20245 11.536C8.27871 11.5044 8.348 11.4581 8.40637 11.3997C8.46474 11.3414 8.51104 11.2721 8.54263 11.1958C8.57422 11.1195 8.59048 11.0378 8.59048 10.9553C8.59048 10.8727 8.57422 10.791 8.54263 10.7147C8.51104 10.6385 8.46474 10.5692 8.40637 10.5108C8.348 10.4524 8.27871 10.4061 8.20245 10.3745C8.12619 10.343 8.04445 10.3267 7.9619 10.3267C7.87936 10.3267 7.79762 10.343 7.72136 10.3745C7.6451 10.4061 7.57581 10.4524 7.51744 10.5108C7.45907 10.5692 7.41277 10.6385 7.38118 10.7147C7.34959 10.791 7.33333 10.8727 7.33333 10.9553Z" fill="#555555"/>
<path d="M10.9733 10.9553C10.9733 11.122 11.0396 11.2819 11.1574 11.3997C11.2753 11.5176 11.4352 11.5838 11.6019 11.5838C11.7686 11.5838 11.9285 11.5176 12.0464 11.3997C12.1643 11.2819 12.2305 11.122 12.2305 10.9553C12.2305 10.7886 12.1643 10.6287 12.0464 10.5108C11.9285 10.3929 11.7686 10.3267 11.6019 10.3267C11.4352 10.3267 11.2753 10.3929 11.1574 10.5108C11.0396 10.6287 10.9733 10.7886 10.9733 10.9553Z" fill="#555555"/>
</svg>
