<svg width="16" height="17" viewBox="0 0 16 17" fill="none" xmlns="http://www.w3.org/2000/svg">
<path d="M14.642 12.9615C15.5 11.6868 16.0006 10.1522 16.0006 8.50016C16.0006 4.08175 12.4189 0.5 8.00047 0.5C6.24075 0.5 4.61442 1.06862 3.29337 2.03115H3.29055V2.03302C1.29631 3.48777 0 5.84241 0 8.49984C0 9.277 0.111156 10.0282 0.318127 10.7389V10.8548H0.352571C0.576137 11.5812 0.900213 12.2635 1.30883 12.8854V12.9824H1.37302C1.8928 13.7496 2.54283 14.4212 3.29055 14.9667V15.1101H3.49314C4.77661 15.9868 6.32842 16.5 8.00016 16.5C9.67189 16.5 11.2237 15.9868 12.5072 15.1101H12.66V15.003C13.4287 14.451 14.0959 13.7665 14.6273 12.9824H14.6417V12.9611L14.642 12.9615ZM15.6863 8.41436H0.314369C0.320945 7.79627 0.399538 7.18913 0.549521 6.59985H15.4511C15.6011 7.18945 15.6797 7.79627 15.6863 8.41436ZM15.6838 8.72748C15.6659 9.3462 15.5754 9.95302 15.4132 10.542H0.587409C0.425214 9.95302 0.334723 9.3462 0.316875 8.72748H15.6838ZM5.00832 1.41712C5.95581 1.01633 6.96249 0.813118 8.00047 0.813118C9.03846 0.813118 10.0451 1.01633 10.9926 1.41712C11.3994 1.58934 11.7879 1.79443 12.1559 2.03115H3.8454C4.21331 1.79443 4.60158 1.58902 5.00863 1.41712H5.00832ZM2.56475 3.06475C2.82589 2.80361 3.103 2.56345 3.39482 2.34458H12.6058C12.8976 2.56345 13.1747 2.80361 13.4359 3.06475C13.7747 3.40354 14.0781 3.76926 14.3455 4.15909H1.65545C1.92254 3.76926 2.22627 3.40354 2.56506 3.06475H2.56475ZM1.45161 4.4719H14.549C14.7522 4.80192 14.931 5.14761 15.0835 5.508C15.1915 5.7632 15.2845 6.02308 15.3637 6.28642H0.63688C0.716099 6.02308 0.809095 5.7632 0.917121 5.508C1.06961 5.14761 1.2484 4.80192 1.45161 4.4719ZM0.681031 10.8551H15.3196C15.2504 11.0702 15.1721 11.2828 15.0832 11.4923C14.9088 11.9044 14.7002 12.2973 14.4598 12.6696H1.54054C1.29975 12.2973 1.09121 11.9044 0.917121 11.4923C0.828509 11.2828 0.75023 11.0702 0.680718 10.8551H0.681031ZM10.9923 15.5832C10.0448 15.984 9.03814 16.1872 8.00016 16.1872C6.96217 16.1872 5.9555 15.984 5.008 15.5832C4.68455 15.4464 4.373 15.2882 4.07397 15.1104H11.9263C11.6273 15.2882 11.3158 15.4464 10.9923 15.5832ZM13.4359 13.9356C13.1171 14.2543 12.7746 14.5418 12.4107 14.7973H3.58989C3.22605 14.5418 2.8835 14.2543 2.56475 13.9356C2.26728 13.6381 1.99706 13.3197 1.7544 12.9827H14.2459C14.0036 13.3197 13.7333 13.6381 13.4356 13.9356H13.4359Z" fill="#555555"/>
</svg>
